<svg width="759" height="538" viewBox="0 0 759 538" fill="none" xmlns="http://www.w3.org/2000/svg">
<g style="mix-blend-mode:overlay">
<path d="M746.438 533.078L740.55 537M746.438 533.078H728.989M746.438 533.078L752.522 529.027M746.438 533.078H758.796M740.55 537L742.692 536.998L744.813 536.99L746.889 536.966L748.9 536.919L750.824 536.843L752.641 536.728L754.327 536.568L755.893 536.365L757.237 536.084L758.46 535.758L758.796 535.643V533.078M740.55 537H723.381M723.381 537H706.212M723.381 537L728.989 533.078M706.212 537H689.043M706.212 537L711.539 533.078M689.043 537H671.874M689.043 537L694.09 533.078M671.874 537H654.705M671.874 537L676.641 533.078M654.705 537H637.536M654.705 537L659.191 533.078M637.536 537H620.367M637.536 537L641.742 533.078M620.367 537H603.198M620.367 537L624.292 533.078M603.198 537H586.028M603.198 537L606.843 533.078M586.028 537H568.859M586.028 537L589.393 533.078M568.859 537H551.691M568.859 537L571.944 533.078M551.691 537H534.522M551.691 537L554.494 533.078M534.522 537H517.352M534.522 537L535.145 536.031L536.089 534.564L537.045 533.078M517.352 537H500.183M517.352 537L517.906 536.031L519.595 533.078M500.183 537H483.014M500.183 537L502.146 533.078M483.014 537H465.845M483.014 537L483.639 535.544L484.271 534.071L484.483 533.575L484.697 533.078M465.845 537H448.676M465.845 537L466.365 535.544L466.541 535.055L466.716 534.564L467.247 533.078M448.676 537H431.507M448.676 537L449.798 533.078M431.507 537L431.611 536.517L431.715 536.031L432.241 533.575L432.348 533.078M431.507 537H414.338M414.338 537H397.169M414.338 537L414.899 533.078M397.169 537H380M397.169 537L397.273 535.544L397.449 533.078M380 537H362.831M380 537V533.078M362.831 537H345.662M362.831 537L362.727 535.544L362.551 533.078M345.662 537H328.493M345.662 537L345.101 533.078M328.493 537L328.389 536.517L328.285 536.031L327.759 533.575L327.652 533.078M328.493 537H311.324M311.324 537H294.155M311.324 537L310.345 533.575L310.202 533.078M294.155 537H276.986M294.155 537L293.635 535.544L293.459 535.055L293.107 534.071L292.931 533.575L292.753 533.078M276.986 537H259.817M276.986 537L276.361 535.544L275.729 534.071L275.517 533.575L275.303 533.078M259.817 537H242.648M259.817 537L257.854 533.078M242.648 537H225.478M242.648 537L242.094 536.031L240.405 533.078M225.478 537H208.31M225.478 537L222.955 533.078M208.31 537H191.141M208.31 537L205.506 533.078M191.141 537H173.971M191.141 537L188.056 533.078M173.971 537H156.802M173.971 537L170.607 533.078M156.802 537H139.633M156.802 537L153.157 533.078M139.633 537H122.464M139.633 537L135.708 533.078M122.464 537H105.295M122.464 537L118.258 533.078M105.295 537H88.1262M105.295 537L100.809 533.078M88.1262 537H70.9573M88.1262 537L83.3593 533.078M70.9573 537H53.788M70.9573 537L65.9099 533.078M53.788 537H36.6191M53.788 537L48.4608 533.078M36.6191 537H19.4501M36.6191 537L31.0113 533.078M19.4501 537L17.3076 536.998L15.1871 536.99L13.1108 536.966L11.0996 536.919L9.17568 536.843L7.35943 536.728L5.67261 536.568L4.10692 536.365L2.76338 536.084L1.54018 535.758L1.204 535.643V533.078M19.4501 537L13.5618 533.078M48.4608 533.078H65.9099M48.4608 533.078H31.0113M48.4608 533.078L42.956 529.027M65.9099 533.078L60.6951 529.027M65.9099 533.078H83.3593M118.258 533.078H135.708M118.258 533.078H100.809M118.258 533.078L117.185 532.078L113.913 529.027M135.708 533.078L131.652 529.027M135.708 533.078H153.157M188.056 533.078H205.506M188.056 533.078H170.607M188.056 533.078L187.269 532.078L186.873 531.575L184.869 529.027M205.506 533.078L205.149 532.58L204.79 532.078L202.609 529.027M205.506 533.078H222.955M257.854 533.078L257.604 532.58L255.826 529.027M257.854 533.078H275.303M257.854 533.078H240.405M275.303 533.078L274.874 532.078L274.658 531.575L274.441 531.07L273.565 529.027M275.303 533.078H292.753M327.652 533.078H345.101M327.652 533.078H310.202M327.652 533.078L326.783 529.027M345.101 533.078L345.03 532.58L344.958 532.078L344.886 531.575L344.668 530.053L344.522 529.027M345.101 533.078H362.551M397.449 533.078H414.899M397.449 533.078H380M397.449 533.078L397.739 529.027M414.899 533.078L414.97 532.58L415.042 532.078L415.114 531.575L415.478 529.027M414.899 533.078H432.348M467.247 533.078H484.697M467.247 533.078H449.798M467.247 533.078L467.605 532.078L468.329 530.053L468.512 529.541L468.696 529.027M484.697 533.078L485.126 532.078L485.342 531.575L485.559 531.07L486.435 529.027M484.697 533.078H502.146M537.045 533.078H554.494M537.045 533.078H519.595M537.045 533.078L537.689 532.078L538.013 531.575L539.652 529.027M554.494 533.078L554.851 532.58L555.21 532.078L557.391 529.027M554.494 533.078H571.944M606.843 533.078H624.292M606.843 533.078H589.393M606.843 533.078L607.773 532.078L608.241 531.575L610.609 529.027M624.292 533.078L628.348 529.027M624.292 533.078H641.742M676.641 533.078H694.09M676.641 533.078H659.191M676.641 533.078L681.565 529.027M694.09 533.078L699.305 529.027M694.09 533.078H711.539M1.14284 496.405H1.204M18.706 496.405L25.368 501.581M18.706 496.405L11.7886 491.031M18.706 496.405H38.7778M18.706 496.405H1.204M25.368 501.581H5.66629M25.368 501.581L31.789 506.569M25.368 501.581H45.0698M5.66629 501.581L12.444 506.569M5.66629 501.581H1.204M5.66629 501.581L1.204 498.297M25.2883 516.023H43.9574M25.2883 516.023L31.3798 520.507M25.2883 516.023H6.6196M25.2883 516.023L18.9802 511.38M43.9574 516.023L49.7286 520.507M43.9574 516.023L37.9815 511.38M43.9574 516.023H62.6266M31.3798 520.507H49.7286M31.3798 520.507L37.2658 524.839M31.3798 520.507H13.0315M49.7286 520.507H68.0769M49.7286 520.507L55.3044 524.839M1.01184 414.71H1.204M17.2077 414.71L25.7985 423.291M17.2077 414.71L8.19002 405.702M17.2077 414.71H43.1217M17.2077 414.71H1.204M25.7985 423.291L33.992 431.475M25.7985 423.291H51.0985M25.7985 423.291H1.204M9.27709 431.475H33.992M9.27709 431.475L17.6587 439.29M9.27709 431.475H1.204M9.27709 431.475L1.204 423.949M25.6695 446.758H49.2914M25.6695 446.758L33.3338 453.903M25.6695 446.758H2.04761M25.6695 446.758L17.6587 439.29M49.2914 446.758L56.4451 453.903M49.2914 446.758L41.8145 439.29M49.2914 446.758H72.9136M33.3338 453.903H56.4451M33.3338 453.903H10.2229M33.3338 453.903L40.6738 460.746M56.4451 453.903L63.2954 460.746M56.4451 453.903H79.556M54.4588 473.598H76.1614M54.4588 473.598L60.9397 479.64M54.4588 473.598H32.7561M54.4588 473.598L47.7091 467.306M76.1614 473.598L82.2103 479.64M76.1614 473.598L69.862 467.306M76.1614 473.598H97.8645M60.9397 479.64H82.2103M60.9397 479.64H39.6692M60.9397 479.64L67.1678 485.447M82.2103 479.64L88.0233 485.447M82.2103 479.64H103.481M78.9215 496.405H98.9933M78.9215 496.405L84.4732 501.581M78.9215 496.405H58.8497M78.9215 496.405L73.1571 491.031M98.9933 496.405L104.175 501.581M98.9933 496.405L93.6133 491.031M98.9933 496.405H119.065M84.4732 501.581H104.175M84.4732 501.581H64.7715M84.4732 501.581L89.8241 506.569M104.175 501.581L109.169 506.569M104.175 501.581H123.877M99.9644 516.023H118.634M99.9644 516.023L104.774 520.507M99.9644 516.023H81.2957M99.9644 516.023L94.9844 511.38M118.634 516.023L123.122 520.507M118.634 516.023L113.985 511.38M118.634 516.023H137.303M104.774 520.507H123.122M104.774 520.507L109.421 524.839M104.774 520.507H86.4252M123.122 520.507H141.471M123.122 520.507L127.459 524.839M14.4804 265.94L26.5711 282.848M14.4804 265.94L1.53268 247.834M14.4804 265.94H51.0322M14.4804 265.94H1.204M26.5711 282.848L37.888 298.674M26.5711 282.848H61.914M26.5711 282.848H1.204M26.3257 327.469H58.478M26.3257 327.469L36.6577 340.603M26.3257 327.469L15.3524 313.518M26.3257 327.469H1.204M58.478 327.469L67.8705 340.603M58.478 327.469L48.5022 313.518M58.478 327.469H90.6302M36.6577 340.603H67.8705M36.6577 340.603H5.44494M36.6577 340.603L46.4034 352.994M67.8705 340.603L76.7304 352.994M67.8705 340.603H99.0837M64.3236 375.776H93.0218M64.3236 375.776L72.581 386.273M64.3236 375.776H35.6259M64.3236 375.776L55.6109 364.699M93.0218 375.776L100.528 386.273M93.0218 375.776L85.1006 364.699M93.0218 375.776H121.72M72.581 386.273H100.528M72.581 386.273H44.6338M72.581 386.273L80.417 396.236M100.528 386.273L107.652 396.236M100.528 386.273H128.475M94.9489 414.71H120.863M94.9489 414.71L101.699 423.291M94.9489 414.71H69.0353M94.9489 414.71L87.8638 405.702M120.863 414.71L126.999 423.291M120.863 414.71L114.421 405.702M120.863 414.71H146.776M101.699 423.291H126.999M101.699 423.291H76.399M101.699 423.291L108.137 431.475M126.999 423.291L132.851 431.475M126.999 423.291H152.299M120.158 446.758H143.78M120.158 446.758L125.778 453.903M120.158 446.758H96.5355M120.158 446.758L114.283 439.29M143.78 446.758L148.889 453.903M143.78 446.758L138.439 439.29M143.78 446.758H167.402M125.778 453.903H148.889M125.778 453.903H102.667M125.778 453.903L131.161 460.746M148.889 453.903L153.783 460.746M148.889 453.903H172M141.27 473.598H162.972M141.27 473.598L146.022 479.64M141.27 473.598H119.567M141.27 473.598L136.32 467.306M162.972 473.598L163.522 474.367L167.293 479.64M162.972 473.598L158.473 467.306M162.972 473.598H184.675M146.022 479.64H167.293M146.022 479.64H124.752M146.022 479.64L150.59 485.447M167.293 479.64L171.445 485.447M167.293 479.64H188.564M159.209 496.405H179.281M159.209 496.405L163.281 501.581M159.209 496.405H139.137M159.209 496.405L154.982 491.031M179.281 496.405L182.982 501.581M179.281 496.405L177.857 494.413L175.438 491.031M179.281 496.405H199.353M163.281 501.581H182.982M163.281 501.581H143.579M163.281 501.581L167.204 506.569M182.982 501.581L186.549 506.569M182.982 501.581H202.684M174.64 516.023H193.31M174.64 516.023L178.167 520.507M174.64 516.023H155.972M174.64 516.023L170.989 511.38M193.31 516.023L195.725 519.4L196.121 519.955L196.516 520.507M193.31 516.023L189.99 511.38M193.31 516.023H211.979M178.167 520.507H196.516M178.167 520.507L181.575 524.839M178.167 520.507H159.819M196.516 520.507H214.864M196.516 520.507L199.613 524.839M27.7237 73.3293H78.0491M27.7237 73.3293L43.57 104.987M27.7237 73.3293L10.3109 38.5419M27.7237 73.3293L1.204 73.3286M78.0491 73.3293L91.6317 104.987M78.0491 73.3293L63.1237 38.5419M78.0491 73.3293H128.374M43.57 104.987H91.6317M43.57 104.987L58.0522 133.918M43.57 104.987H1.204M91.6317 104.987L104.045 133.918M91.6317 104.987H139.693M83.5724 184.902H125.919M83.5724 184.902L94.8732 207.479M83.5724 184.902H41.2258M83.5724 184.902L71.3389 160.462M125.919 184.902L135.606 207.479M125.919 184.902L115.433 160.462M125.919 184.902H168.266M94.8732 207.479H135.606M94.8732 207.479H54.1407M94.8732 207.479L105.344 228.397M135.606 207.479L144.581 228.397M135.606 207.479H176.338M124.136 265.94H160.688M124.136 265.94L132.6 282.848M124.136 265.94H87.5841M124.136 265.94L115.073 247.834M160.688 265.94L167.943 282.848M160.688 265.94L152.92 247.834M160.688 265.94H197.24M132.6 282.848H167.943M132.6 282.848H97.2568M132.6 282.848L140.522 298.674M167.943 282.848L174.733 298.674M167.943 282.848H203.286M154.934 327.469H187.087M154.934 327.469L161.51 340.603M154.934 327.469H122.783M154.934 327.469L147.952 313.518M187.087 327.469L192.722 340.603M187.087 327.469L181.101 313.518M187.087 327.469H219.239M161.51 340.603H192.722M161.51 340.603H130.296M161.51 340.603L167.711 352.994M192.722 340.603L198.038 352.994M192.722 340.603H223.935M179.115 375.776H207.813M179.115 375.776L184.37 386.273M179.115 375.776H150.417M179.115 375.776L173.57 364.699M207.813 375.776L212.317 386.273M207.813 375.776L203.06 364.699M207.813 375.776H236.511M184.37 386.273H212.317M184.37 386.273H156.422M184.37 386.273L189.356 396.236M212.317 386.273L216.591 396.236M212.317 386.273H240.264M198.604 414.71H224.518M198.604 414.71L202.899 423.291M198.604 414.71H172.69M198.604 414.71L194.095 405.702M224.518 414.71L228.199 423.291M224.518 414.71L220.653 405.702M224.518 414.71H250.431M202.899 423.291H228.199M202.899 423.291H177.599M202.899 423.291L206.996 431.475M228.199 423.291L231.711 431.475M228.199 423.291H253.5M214.646 446.758H238.268M214.646 446.758L218.223 453.903M214.646 446.758H191.024M214.646 446.758L210.907 439.29M238.268 446.758L241.333 453.903M238.268 446.758L235.064 439.29M238.268 446.758H261.89M218.223 453.903H241.333M218.223 453.903H195.111M218.223 453.903L221.648 460.746M241.333 453.903L244.27 460.746M241.333 453.903H264.445M228.081 473.598H249.784M228.081 473.598L231.105 479.64M228.081 473.598H206.378M228.081 473.598L224.931 467.306M249.784 473.598L249.452 472.826L247.084 467.306M249.784 473.598L252.376 479.64M249.784 473.598H271.486M231.105 479.64H252.376M231.105 479.64H209.835M231.105 479.64L234.012 485.447M252.376 479.64L254.867 485.447M252.376 479.64H273.647M239.497 496.405H259.569M239.497 496.405L242.087 501.581M239.497 496.405H219.425M239.497 496.405L236.807 491.031M259.569 496.405L261.789 501.581M259.569 496.405L258.714 494.413L258.138 493.07L257.263 491.031M259.569 496.405H279.64M242.087 501.581H261.789M242.087 501.581H222.386M242.087 501.581L244.584 506.569M261.789 501.581L262.601 503.473L263.136 504.72L263.93 506.569M261.789 501.581H281.491M249.317 516.023H267.986M249.317 516.023L251.007 519.4L251.561 520.507M249.317 516.023H230.648M249.317 516.023L247.288 511.97L246.993 511.38M267.986 516.023L269.435 519.4L269.673 519.955L269.91 520.507M267.986 516.023L266.998 513.723L265.994 511.38M267.986 516.023H286.655M251.561 520.507H269.91M251.561 520.507L253.73 524.839M251.561 520.507H233.213M269.91 520.507H288.258M269.91 520.507L271.768 524.839M229.025 73.3293H279.35M229.025 73.3293L235.816 104.987M229.025 73.3293H178.7M229.025 73.3293L221.562 38.5419M279.35 73.3293L283.877 104.987M279.35 73.3293L274.375 38.5419M279.35 73.3293H329.675M235.816 104.987H283.877M235.816 104.987H187.754M235.816 104.987L242.022 133.918M283.877 104.987L288.015 133.918M283.877 104.987H331.939M252.96 184.902H295.306M252.96 184.902L257.803 207.479M252.96 184.902H210.613M252.96 184.902L247.717 160.462M295.306 184.902L298.535 207.479M295.306 184.902L291.811 160.462M295.306 184.902H337.653M257.803 207.479H298.535M257.803 207.479H217.07M257.803 207.479L262.29 228.397M298.535 207.479L301.527 228.397M298.535 207.479H339.268M270.344 265.94H306.896M270.344 265.94L273.971 282.848M270.344 265.94H233.792M270.344 265.94L266.46 247.834M306.896 265.94L309.314 282.848M306.896 265.94L304.307 247.834M306.896 265.94H343.448M273.971 282.848H309.314M273.971 282.848H238.629M273.971 282.848L277.366 298.674M309.314 282.848L311.578 298.674M309.314 282.848H344.657M283.544 327.469H315.695M283.544 327.469L286.361 340.603M283.544 327.469H251.391M283.544 327.469L280.551 313.518M315.695 327.469L317.574 340.603M315.695 327.469L313.7 313.518M315.695 327.469H347.848M286.361 340.603H317.574M286.361 340.603H255.148M286.361 340.603L289.019 352.994M317.574 340.603L319.346 352.994M317.574 340.603H348.787M293.906 375.776H322.605M293.906 375.776L296.158 386.273M293.906 375.776H265.209M293.906 375.776L291.53 364.699M322.605 375.776L324.106 386.273M322.605 375.776L321.02 364.699M322.605 375.776H351.302M296.158 386.273H324.106M296.158 386.273H268.211M296.158 386.273L298.296 396.236M324.106 386.273L325.53 396.236M324.106 386.273H352.053M302.259 414.71H328.172M302.259 414.71L304.1 423.291M302.259 414.71H276.345M302.259 414.71L300.327 405.702M328.172 414.71L329.4 423.291M328.172 414.71L326.884 405.702M328.172 414.71H354.086M304.1 423.291H329.4M304.1 423.291H278.8M304.1 423.291L304.768 426.405L305.855 431.475M329.4 423.291L330.57 431.475M329.4 423.291H354.7M309.134 446.758H332.756M309.134 446.758L310.667 453.903M309.134 446.758H285.512M309.134 446.758L307.939 441.188L307.532 439.29M332.756 446.758L333.145 449.475L333.778 453.903M332.756 446.758L331.688 439.29M332.756 446.758H356.378M310.667 453.903L310.854 454.775L312.135 460.746M310.667 453.903H333.778M310.667 453.903H287.556M333.778 453.903L334.15 456.504L334.272 457.362L334.395 458.214L334.756 460.746M333.778 453.903H356.889M314.892 473.598H336.594M314.892 473.598L315.546 476.65L315.708 477.403L315.869 478.153L316.029 478.898L316.188 479.64M314.892 473.598H293.189M314.892 473.598L313.542 467.306M336.594 473.598L337.246 478.153L337.353 478.898L337.458 479.64M336.594 473.598L335.695 467.306M336.594 473.598H358.297M316.188 479.64H337.458M316.188 479.64H294.917M316.188 479.64L316.972 483.296L317.127 484.017L317.434 485.447M337.458 479.64L337.981 483.296L338.085 484.017L338.187 484.734L338.289 485.447M337.458 479.64H358.729M319.784 496.405H339.856M319.784 496.405L320.895 501.581M319.784 496.405H299.712M319.784 496.405L319.5 495.081L319.069 493.07L318.632 491.031M339.856 496.405L339.762 495.744L339.185 491.714L339.088 491.031M339.856 496.405L340.597 501.581M339.856 496.405H359.928M320.895 501.581H340.597M320.895 501.581H301.193M320.895 501.581L321.965 506.569M340.597 501.581L340.867 503.473L340.956 504.098L341.046 504.72L341.31 506.569M340.597 501.581H360.298M323.993 516.023H342.662M323.993 516.023L324.718 519.4L324.955 520.507M323.993 516.023H305.324M323.993 516.023L323.623 514.301L323.499 513.723L323.374 513.141L322.997 511.38M342.662 516.023L342.743 516.592L342.905 517.723L343.065 518.844L343.303 520.507M342.662 516.023L342.333 513.723L342.25 513.141L342.082 511.97L341.998 511.38M342.662 516.023H361.331M324.955 520.507H343.303M324.955 520.507L325.769 524.305L325.884 524.839M324.955 520.507H306.606M343.303 520.507L343.382 521.057L343.46 521.604L343.538 522.149L343.615 522.691L343.846 524.305L343.923 524.839M343.303 520.507H361.652M430.325 73.3293H480.65M430.325 73.3293L428.061 104.987M430.325 73.3293H380M430.325 73.3293L432.813 38.5419M480.65 73.3293L476.123 104.987M480.65 73.3293L485.625 38.5419M480.65 73.3293H530.975M428.061 104.987H476.123M428.061 104.987H380M428.061 104.987L425.993 133.918M476.123 104.987L471.985 133.918M476.123 104.987H524.184M422.347 184.902H464.694M422.347 184.902L420.732 207.479M422.347 184.902H380M422.347 184.902L424.095 160.462M464.694 184.902L461.465 207.479M464.694 184.902L468.189 160.462M464.694 184.902H507.04M420.732 207.479H461.465M420.732 207.479H380M420.732 207.479L419.237 228.397M461.465 207.479L458.473 228.397M461.465 207.479H502.197M416.552 265.94H453.104M416.552 265.94L415.343 282.848M416.552 265.94H380M416.552 265.94L417.847 247.834M453.104 265.94L450.686 282.848M453.104 265.94L455.693 247.834M453.104 265.94H489.656M415.343 282.848H450.686M415.343 282.848H380M415.343 282.848L414.211 298.674M450.686 282.848L448.422 298.674M450.686 282.848H486.029M412.152 327.469H444.305M412.152 327.469L411.213 340.603M412.152 327.469H380M412.152 327.469L413.15 313.518M444.305 327.469L442.426 340.603M444.305 327.469L446.3 313.518M444.305 327.469H476.456M411.213 340.603H442.426M411.213 340.603H380M411.213 340.603L410.327 352.994M442.426 340.603L440.654 352.994M442.426 340.603H473.639M408.698 375.776H437.395M408.698 375.776L407.947 386.273M408.698 375.776H380M408.698 375.776L409.49 364.699M437.395 375.776L435.894 386.273M437.395 375.776L438.98 364.699M437.395 375.776H466.094M407.947 386.273H435.894M407.947 386.273H380M407.947 386.273L407.235 396.236M435.894 386.273L434.47 396.236M435.894 386.273H463.842M405.914 414.71H431.828M405.914 414.71L405.3 423.291M405.914 414.71H380M405.914 414.71L406.558 405.702M431.828 414.71L430.6 423.291M431.828 414.71L433.116 405.702M431.828 414.71H457.741M405.3 423.291H430.6M405.3 423.291H380M405.3 423.291L404.715 431.475M430.6 423.291L429.43 431.475M430.6 423.291H455.9M403.622 446.758H427.244M403.622 446.758L403.111 453.903M403.622 446.758H380M403.622 446.758L404.156 439.29M427.244 446.758L426.347 453.027L426.222 453.903M427.244 446.758L428.312 439.29M427.244 446.758H450.866M403.111 453.903L403.049 454.775L402.622 460.746M403.111 453.903H426.222M403.111 453.903H380M426.222 453.903L425.85 456.504L425.728 457.362L425.605 458.214L425.244 460.746M426.222 453.903H449.333M401.703 473.598H423.406M401.703 473.598L401.271 479.64M401.703 473.598H380M401.703 473.598L401.869 471.269L401.926 470.484L401.982 469.696L402.095 468.107L402.153 467.306M423.406 473.598L422.754 478.153L422.541 479.64M423.406 473.598L424.305 467.306M423.406 473.598H445.108M401.271 479.64H422.541M401.271 479.64H380M401.271 479.64L400.855 485.447M422.541 479.64L422.019 483.296L421.915 484.017L421.813 484.734L421.711 485.447M422.541 479.64H443.812M400.072 496.405H420.144M400.072 496.405L399.702 501.581M400.072 496.405H380M400.072 496.405L400.456 491.031M420.144 496.405L420.238 495.744L420.815 491.714L420.912 491.031M420.144 496.405L419.403 501.581M420.144 496.405H440.216M399.702 501.581H419.403M399.702 501.581H380M399.702 501.581L399.345 506.569M419.403 501.581L419.133 503.473L419.044 504.098L418.954 504.72L418.69 506.569M419.403 501.581H439.105M398.669 516.023H417.338M398.669 516.023L398.348 520.507M398.669 516.023H380M398.669 516.023L399.001 511.38M417.338 516.023L417.257 516.592L417.095 517.723L417.015 518.285L416.855 519.4L416.776 519.955L416.697 520.507M417.338 516.023L417.667 513.723L417.75 513.141L417.918 511.97L418.002 511.38M417.338 516.023H436.007M398.348 520.507L398.309 521.057L398.27 521.604L398.231 522.149L398.039 524.839M398.348 520.507H416.697M398.348 520.507H380M416.697 520.507H435.045M416.697 520.507L416.54 521.604L416.462 522.149L416.385 522.691L416.154 524.305L416.077 524.839M631.626 73.3293H681.951M631.626 73.3293L620.307 104.987M631.626 73.3293H581.301M631.626 73.3293L644.064 38.5419M681.951 73.3293L668.368 104.987M681.951 73.3293L696.876 38.5419M681.951 73.3293H732.276M620.307 104.987H668.368M620.307 104.987H572.246M620.307 104.987L609.963 133.918M668.368 104.987L655.955 133.918M668.368 104.987H716.43M591.734 184.902H634.081M591.734 184.902L583.662 207.479M591.734 184.902H549.387M591.734 184.902L600.472 160.462M634.081 184.902L624.394 207.479M634.081 184.902L644.567 160.462M634.081 184.902H676.428M583.662 207.479H624.394M583.662 207.479H542.93M583.662 207.479L576.183 228.397M624.394 207.479L615.419 228.397M624.394 207.479H665.127M562.76 265.94H599.312M562.76 265.94L556.714 282.848M562.76 265.94H526.208M562.76 265.94L569.234 247.834M599.312 265.94L592.057 282.848M599.312 265.94L607.08 247.834M599.312 265.94H635.864M556.714 282.848H592.057M556.714 282.848H521.371M556.714 282.848L551.056 298.674M592.057 282.848L585.267 298.674M592.057 282.848H627.4M540.761 327.469H572.913M540.761 327.469L536.065 340.603M540.761 327.469H508.609M540.761 327.469L545.749 313.518M572.913 327.469L567.278 340.603M572.913 327.469L578.899 313.518M572.913 327.469H605.066M536.065 340.603H567.278M536.065 340.603H504.852M536.065 340.603L531.635 352.994M567.278 340.603L561.962 352.994M567.278 340.603H598.49M523.489 375.776H552.187M523.489 375.776L519.736 386.273M523.489 375.776H494.791M523.489 375.776L527.449 364.699M552.187 375.776L547.683 386.273M552.187 375.776L556.94 364.699M552.187 375.776H580.885M519.736 386.273H547.683M519.736 386.273H491.789M519.736 386.273L516.174 396.236M547.683 386.273L543.409 396.236M547.683 386.273H575.63M509.569 414.71H535.482M509.569 414.71L506.5 423.291M509.569 414.71H483.655M509.569 414.71L512.789 405.702M535.482 414.71L531.801 423.291M535.482 414.71L539.347 405.702M535.482 414.71H561.396M506.5 423.291H531.801M506.5 423.291H481.2M506.5 423.291L503.574 431.475M531.801 423.291L528.289 431.475M531.801 423.291H557.101M498.11 446.758L498.437 445.843L498.767 444.922L500.78 439.29M498.11 446.758H521.732M498.11 446.758L495.555 453.903M498.11 446.758H474.488M521.732 446.758L518.667 453.903M521.732 446.758L524.936 439.29M521.732 446.758H545.354M495.555 453.903H518.667M495.555 453.903H472.444M495.555 453.903L493.109 460.746M518.667 453.903L515.731 460.746M518.667 453.903H541.777M488.514 473.598H510.217M488.514 473.598L486.353 479.64M488.514 473.598H466.811M488.514 473.598L490.763 467.306M510.217 473.598L508.584 477.403L507.624 479.64M510.217 473.598L512.916 467.306M510.217 473.598H531.919M486.353 479.64H507.624M486.353 479.64H465.083M486.353 479.64L484.533 484.734L484.277 485.447M507.624 479.64L505.133 485.447M507.624 479.64H528.895M480.36 496.405H500.431M480.36 496.405L479.89 497.717L478.509 501.581M480.36 496.405H460.288M480.36 496.405L480.833 495.081L481.794 492.394L482.281 491.031M500.431 496.405L498.211 501.581M500.431 496.405L501.286 494.413L501.862 493.07L502.737 491.031M500.431 496.405H520.503M478.509 501.581H498.211M478.509 501.581H458.807M478.509 501.581L477.165 505.34L476.725 506.569M498.211 501.581L497.399 503.473L496.864 504.72L496.07 506.569M498.211 501.581H517.912M473.345 516.023H492.014M473.345 516.023L472.337 518.844L471.742 520.507M473.345 516.023H454.676M473.345 516.023L475.005 511.38M492.014 516.023L490.565 519.4L490.327 519.955L490.09 520.507M492.014 516.023L493.002 513.723L494.006 511.38M492.014 516.023H510.683M471.742 520.507H490.09M471.742 520.507L470.961 522.691L470.576 523.77L470.384 524.305L470.193 524.839M471.742 520.507H453.394M490.09 520.507H508.439M490.09 520.507L488.232 524.839M746.592 207.479H705.859M746.592 207.479L733.129 228.397M746.592 207.479H758.796M746.592 207.479L758.796 188.515M708.968 265.94H745.52M708.968 265.94L698.086 282.848M708.968 265.94H672.416M708.968 265.94L720.62 247.834M745.52 265.94L733.429 282.848M745.52 265.94L758.467 247.834M745.52 265.94H758.796M698.086 282.848H733.429M698.086 282.848H662.743M698.086 282.848L687.901 298.674M733.429 282.848L722.112 298.674M733.429 282.848H758.796M669.37 327.469H701.522M669.37 327.469L660.916 340.603M669.37 327.469H637.217M669.37 327.469L678.348 313.518M701.522 327.469L692.129 340.603M701.522 327.469L711.498 313.518M701.522 327.469H733.674M660.916 340.603H692.129M660.916 340.603H629.703M660.916 340.603L652.943 352.994M692.129 340.603L683.27 352.994M692.129 340.603H723.342M638.28 375.776H666.978M638.28 375.776L631.525 386.273M638.28 375.776H609.583M638.28 375.776L645.409 364.699M666.978 375.776L659.472 386.273M666.978 375.776L674.899 364.699M666.978 375.776H695.676M631.525 386.273H659.472M631.525 386.273H603.578M631.525 386.273L625.113 396.236M659.472 386.273L652.348 396.236M659.472 386.273H687.419M613.223 414.71H639.137M613.223 414.71L607.701 423.291M613.223 414.71H587.31M613.223 414.71L619.021 405.702M639.137 414.71L633.001 423.291M639.137 414.71L645.579 405.702M639.137 414.71H665.051M607.701 423.291H633.001M607.701 423.291H582.401M607.701 423.291L602.434 431.475M633.001 423.291L627.149 431.475M633.001 423.291H658.301M592.598 446.758H616.22M592.598 446.758L588 453.903M592.598 446.758H568.976M592.598 446.758L597.405 439.29M616.22 446.758L611.111 453.903M616.22 446.758L621.561 439.29M616.22 446.758H639.842M588 453.903H611.111M588 453.903H564.889M588 453.903L583.596 460.746M611.111 453.903L606.217 460.746M611.111 453.903H634.222M575.325 473.598H597.027M575.325 473.598L571.436 479.64M575.325 473.598H553.622M575.325 473.598L579.375 467.306M597.027 473.598L592.707 479.64M597.027 473.598L601.527 467.306M597.027 473.598H618.73M571.436 479.64H592.707M571.436 479.64H550.165M571.436 479.64L567.699 485.447M592.707 479.64L588.555 485.447M592.707 479.64H613.978M560.647 496.405H580.719M560.647 496.405L557.316 501.581M560.647 496.405H540.575M560.647 496.405L561.5 495.081L561.929 494.413L564.106 491.031M580.719 496.405L577.018 501.581M580.719 496.405L584.562 491.031M580.719 496.405H600.791M557.316 501.581H577.018M557.316 501.581H537.614M557.316 501.581L554.106 506.569M577.018 501.581L573.451 506.569M577.018 501.581H596.719M548.021 516.023H566.69M548.021 516.023L545.136 520.507M548.021 516.023H529.352M548.021 516.023L551.009 511.38M566.69 516.023L564.275 519.4L563.879 519.955L563.484 520.507M566.69 516.023L570.01 511.38M566.69 516.023H585.359M545.136 520.507H563.484M545.136 520.507L542.691 524.305L542.348 524.839M545.136 520.507H526.787M563.484 520.507H581.833M563.484 520.507L560.387 524.839M753.072 375.776L743.313 386.273M753.072 375.776H724.374M753.072 375.776L758.796 369.618M753.072 375.776H758.796M743.313 386.273H715.366M743.313 386.273L734.053 396.236M743.313 386.273H758.796M716.878 414.71H742.792M716.878 414.71L708.901 423.291M716.878 414.71H690.965M716.878 414.71L725.252 405.702M742.792 414.71L734.201 423.291M742.792 414.71L751.81 405.702M742.792 414.71H758.796M708.901 423.291H734.201M708.901 423.291H683.601M708.901 423.291L701.293 431.475M734.201 423.291L726.008 431.475M734.201 423.291H758.796M687.086 446.758H710.709M687.086 446.758L680.444 453.903M687.086 446.758H663.464M687.086 446.758L694.029 439.29M710.709 446.758L703.555 453.903M710.709 446.758L718.185 439.29M710.709 446.758H734.33M680.444 453.903H703.555M680.444 453.903H657.333M680.444 453.903L674.083 460.746M703.555 453.903L696.705 460.746M703.555 453.903H726.666M662.136 473.598H683.838M662.136 473.598L656.519 479.64M662.136 473.598H640.433M662.136 473.598L667.985 467.306M683.838 473.598L677.79 479.64M683.838 473.598L690.138 467.306M683.838 473.598H705.541M656.519 479.64H677.79M656.519 479.64H635.248M656.519 479.64L651.121 485.447M677.79 479.64L671.977 485.447M677.79 479.64H699.06M640.935 496.405H661.007M640.935 496.405L636.123 501.581M640.935 496.405H620.863M640.935 496.405L645.931 491.031M661.007 496.405L655.825 501.581M661.007 496.405L666.387 491.031M661.007 496.405H681.078M636.123 501.581H655.825M636.123 501.581H616.421M636.123 501.581L631.486 506.569M655.825 501.581L650.831 506.569M655.825 501.581H675.527M622.697 516.023H641.366M622.697 516.023L618.529 520.507M622.697 516.023H604.028M622.697 516.023L627.013 511.38M641.366 516.023L636.878 520.507M641.366 516.023L646.015 511.38M641.366 516.023H660.036M618.529 520.507H636.878M618.529 520.507L614.502 524.839M618.529 520.507H600.181M636.878 520.507H655.226M636.878 520.507L632.541 524.839M748.946 473.598L741.601 479.64M748.946 473.598H727.244M748.946 473.598L756.596 467.306M748.946 473.598H758.796M741.601 479.64H720.331M741.601 479.64L734.543 485.447M741.601 479.64H758.796M721.222 496.405H741.294M721.222 496.405L714.93 501.581M721.222 496.405H701.15M721.222 496.405L727.755 491.031M741.294 496.405L734.632 501.581M741.294 496.405L748.211 491.031M741.294 496.405H758.796M714.93 501.581H734.632M714.93 501.581H695.228M714.93 501.581L708.866 506.569M734.632 501.581L728.211 506.569M734.632 501.581H754.334M697.373 516.023H716.043M697.373 516.023L691.923 520.507M697.373 516.023H678.704M697.373 516.023L703.017 511.38M716.043 516.023L710.271 520.507M716.043 516.023L722.018 511.38M716.043 516.023H734.712M691.923 520.507H710.271M691.923 520.507L686.657 524.839M691.923 520.507H673.575M710.271 520.507H728.62M710.271 520.507L704.696 524.839M722.018 511.38L728.211 506.569M722.018 511.38H741.02M722.018 511.38H703.017M734.712 516.023L728.62 520.507M734.712 516.023L741.02 511.38M734.712 516.023H753.38M728.62 520.507H746.968M728.62 520.507L722.734 524.839M704.696 524.839H686.657M704.696 524.839H722.734M704.696 524.839L699.305 529.027M741.02 511.38L747.556 506.569M741.02 511.38H758.796M753.38 516.023L746.968 520.507M753.38 516.023L758.796 512.237M753.38 516.023H758.796M746.968 520.507L740.773 524.839M746.968 520.507H758.796M722.734 524.839H740.773M722.734 524.839L717.044 529.027M740.773 524.839L734.783 529.027M740.773 524.839H758.796M728.211 506.569H747.556M728.211 506.569H708.866M754.334 501.581L747.556 506.569M754.334 501.581L758.796 498.297M754.334 501.581H758.796M747.556 506.569H758.796M708.866 506.569H689.521M708.866 506.569L703.017 511.38M703.017 511.38H684.017M748.211 491.031L755.399 485.447M748.211 491.031H727.755M748.211 491.031H758.796M758.857 496.405H758.796M755.399 485.447H734.543M755.399 485.447L758.796 482.808M755.399 485.447H758.796M734.543 485.447H713.688M734.543 485.447L727.755 491.031M727.755 491.031H707.299M646.015 511.38L650.831 506.569M646.015 511.38H665.016M646.015 511.38H627.013M660.036 516.023L655.226 520.507M660.036 516.023L665.016 511.38M660.036 516.023H678.704M655.226 520.507H673.575M655.226 520.507L650.579 524.839M632.541 524.839H650.579M632.541 524.839L628.348 529.027M632.541 524.839H614.502M665.016 511.38L670.176 506.569M665.016 511.38H684.017M678.704 516.023L673.575 520.507M678.704 516.023L684.017 511.38M673.575 520.507L668.618 524.839M650.579 524.839H668.618M650.579 524.839L646.087 529.027M684.017 511.38L689.521 506.569M686.657 524.839H668.618M686.657 524.839L681.565 529.027M668.618 524.839L663.826 529.027M650.831 506.569H670.176M650.831 506.569H631.486M675.527 501.581L670.176 506.569M675.527 501.581L681.078 496.405M675.527 501.581H695.228M670.176 506.569H689.521M631.486 506.569H612.141M631.486 506.569L627.013 511.38M689.521 506.569L695.228 501.581M627.013 511.38H608.012M681.078 496.405L686.843 491.031M681.078 496.405H701.15M695.228 501.581L701.15 496.405M701.15 496.405L707.299 491.031M666.387 491.031L671.977 485.447M666.387 491.031H686.843M666.387 491.031H645.931M686.843 491.031L692.832 485.447M686.843 491.031H707.299M707.299 491.031L713.688 485.447M671.977 485.447H692.832M671.977 485.447H651.121M699.06 479.64L692.832 485.447M699.06 479.64L705.541 473.598M699.06 479.64H720.331M692.832 485.447H713.688M651.121 485.447H630.266M651.121 485.447L645.931 491.031M713.688 485.447L720.331 479.64M645.931 491.031H625.474M705.541 473.598L712.291 467.306M705.541 473.598H727.244M720.331 479.64L727.244 473.598M727.244 473.598L734.443 467.306M690.138 467.306L696.705 460.746M690.138 467.306H712.291M690.138 467.306H667.985M712.291 467.306L719.326 460.746M712.291 467.306H734.443M734.443 467.306L741.948 460.746M734.443 467.306H756.596M756.596 467.306H758.796M756.596 467.306L758.796 465.496M696.705 460.746H719.326M696.705 460.746H674.083M726.666 453.903L719.326 460.746M726.666 453.903L734.33 446.758M726.666 453.903H749.777M719.326 460.746H741.948M674.083 460.746H651.461M674.083 460.746L667.985 467.306M741.948 460.746L749.777 453.903M741.948 460.746H758.796M667.985 467.306H645.833M734.33 446.758L742.341 439.29M734.33 446.758H757.952M749.777 453.903L757.952 446.758M749.777 453.903H758.796M758.914 460.746H758.796M757.952 446.758L758.796 446.021M757.952 446.758H758.796M718.185 439.29L726.008 431.475M718.185 439.29H742.341M718.185 439.29H694.029M742.341 439.29L750.723 431.475M742.341 439.29H758.796M759 445.843L758.796 446.021M726.008 431.475H750.723M726.008 431.475H701.293M750.723 431.475H758.796M750.723 431.475L758.796 423.949M701.293 431.475H676.578M701.293 431.475L694.029 439.29M694.029 439.29H669.873M751.81 405.702H725.252M751.81 405.702L758.796 398.724M751.81 405.702H758.796M758.988 414.71H758.796M725.252 405.702H698.694M725.252 405.702L734.053 396.236M758.873 398.647L758.796 398.724M570.01 511.38L573.451 506.569M570.01 511.38H589.011M570.01 511.38H551.009M585.359 516.023L581.833 520.507M585.359 516.023L589.011 511.38M585.359 516.023H604.028M581.833 520.507H600.181M581.833 520.507L578.425 524.839M560.387 524.839H578.425M560.387 524.839L559.251 526.426L557.391 529.027M560.387 524.839H542.348M589.011 511.38L592.796 506.569M589.011 511.38H608.012M604.028 516.023L600.181 520.507M604.028 516.023L608.012 511.38M600.181 520.507L596.464 524.839M578.425 524.839H596.464M578.425 524.839L575.131 529.027M608.012 511.38L612.141 506.569M614.502 524.839L610.609 529.027M614.502 524.839H596.464M596.464 524.839L596.008 525.371L595.102 526.426L592.87 529.027M573.451 506.569H592.796M573.451 506.569H554.106M596.719 501.581L592.796 506.569M596.719 501.581L600.791 496.405M596.719 501.581H616.421M592.796 506.569H612.141M554.106 506.569H534.761M554.106 506.569L551.009 511.38M612.141 506.569L616.421 501.581M551.009 511.38H532.008M600.791 496.405L605.018 491.031M600.791 496.405H620.863M616.421 501.581L616.968 500.945L620.863 496.405M620.863 496.405L625.474 491.031M584.562 491.031L585.053 490.344L588.555 485.447M584.562 491.031H605.018M584.562 491.031H564.106M605.018 491.031L609.41 485.447M605.018 491.031H625.474M625.474 491.031L630.266 485.447M588.555 485.447H609.41M588.555 485.447H567.699M613.978 479.64L609.41 485.447M613.978 479.64L618.73 473.598M613.978 479.64H635.248M609.41 485.447H630.266M567.699 485.447H546.844M567.699 485.447L564.106 491.031M630.266 485.447L635.248 479.64M564.106 491.031H543.65M618.73 473.598L623.68 467.306M618.73 473.598H640.433M635.248 479.64L640.433 473.598M640.433 473.598L645.833 467.306M601.527 467.306L606.217 460.746M601.527 467.306H623.68M601.527 467.306H579.375M623.68 467.306L628.839 460.746M623.68 467.306H645.833M645.833 467.306L651.461 460.746M606.217 460.746H628.839M606.217 460.746H583.596M634.222 453.903L628.839 460.746M634.222 453.903L639.842 446.758M634.222 453.903H657.333M628.839 460.746H651.461M583.596 460.746H560.974M583.596 460.746L579.375 467.306M651.461 460.746L657.333 453.903M579.375 467.306H557.222M639.842 446.758L645.717 439.29M639.842 446.758H663.464M657.333 453.903L663.464 446.758M663.464 446.758L669.873 439.29M621.561 439.29L627.149 431.475M621.561 439.29H645.717M621.561 439.29H597.405M645.717 439.29L651.863 431.475M645.717 439.29H669.873M669.873 439.29L676.578 431.475M627.149 431.475H651.863M627.149 431.475H602.434M658.301 423.291L651.863 431.475M658.301 423.291L665.051 414.71M658.301 423.291H683.601M651.863 431.475H676.578M602.434 431.475H577.719M602.434 431.475L597.405 439.29M676.578 431.475L683.601 423.291M597.405 439.29H573.249M665.051 414.71L672.136 405.702M665.051 414.71H690.965M683.601 423.291L690.965 414.71M690.965 414.71L698.694 405.702M645.579 405.702L652.348 396.236M645.579 405.702H672.136M645.579 405.702H619.021M672.136 405.702L679.583 396.236M672.136 405.702H698.694M698.694 405.702L706.818 396.236M652.348 396.236H679.583M652.348 396.236H625.113M687.419 386.273L679.583 396.236M687.419 386.273L695.676 375.776M687.419 386.273H715.366M679.583 396.236H706.818M625.113 396.236H597.878M625.113 396.236L619.021 405.702M706.818 396.236L715.366 386.273M706.818 396.236H734.053M619.021 405.702H592.463M695.676 375.776L704.389 364.699M695.676 375.776H724.374M715.366 386.273L724.374 375.776M734.053 396.236H758.796M724.374 375.776L733.879 364.699M674.899 364.699L683.27 352.994M674.899 364.699H704.389M674.899 364.699H645.409M704.389 364.699L713.597 352.994M704.389 364.699H733.879M733.879 364.699L743.924 352.994M733.879 364.699H758.796M683.27 352.994H713.597M683.27 352.994H652.943M723.342 340.603L713.597 352.994M723.342 340.603L733.674 327.469M723.342 340.603H754.555M713.597 352.994H743.924M652.943 352.994H622.616M652.943 352.994L645.409 364.699M743.924 352.994L754.555 340.603M743.924 352.994H758.796M645.409 364.699H615.919M733.674 327.469L744.648 313.518M733.674 327.469H758.796M754.555 340.603H758.796M754.555 340.603L758.796 335.661M711.498 313.518L722.112 298.674M711.498 313.518H744.648M711.498 313.518H678.348M744.648 313.518L756.323 298.674M744.648 313.518H758.796M722.112 298.674H756.323M722.112 298.674H687.901M756.323 298.674L758.796 295.53M756.323 298.674H758.796M687.901 298.674H653.69M687.901 298.674L678.348 313.518M678.348 313.518H645.198M758.467 247.834H720.62M758.467 247.834H758.796M758.467 247.834L758.796 247.374M720.62 247.834H682.774M720.62 247.834L733.129 228.397M494.006 511.38L494.772 509.597L495.029 508.996L496.07 506.569M494.006 511.38H513.007M494.006 511.38H475.005M510.683 516.023L508.993 519.4L508.439 520.507M510.683 516.023L512.712 511.97L513.007 511.38M510.683 516.023H529.352M508.439 520.507H526.787M508.439 520.507L506.27 524.839M488.232 524.839H506.27M488.232 524.839L487.551 526.426L486.435 529.027M488.232 524.839H470.193M513.007 511.38L513.601 510.194L515.416 506.569M513.007 511.38H532.008M529.352 516.023L526.787 520.507M529.352 516.023L532.008 511.38M526.787 520.507L524.921 523.77L524.309 524.839M506.27 524.839H524.309M506.27 524.839L504.174 529.027M532.008 511.38L534.761 506.569M542.348 524.839L542.006 525.371L539.652 529.027M542.348 524.839H524.309M524.309 524.839L523.401 526.426L521.913 529.027M496.07 506.569H515.416M496.07 506.569H476.725M517.912 501.581L515.416 506.569M517.912 501.581L520.503 496.405M517.912 501.581H537.614M515.416 506.569H534.761M476.725 506.569H457.38M476.725 506.569L475.005 511.38M534.761 506.569L537.614 501.581M475.005 511.38H456.004M520.503 496.405L522.172 493.07L522.511 492.394L523.193 491.031M520.503 496.405H540.575M537.614 501.581L540.575 496.405M540.575 496.405L543.65 491.031M502.737 491.031L505.133 485.447M502.737 491.031H523.193M502.737 491.031H482.281M523.193 491.031L525.988 485.447M523.193 491.031H543.65M543.65 491.031L546.844 485.447M505.133 485.447H525.988M505.133 485.447H484.277M528.895 479.64L527.065 483.296L526.705 484.017L525.988 485.447M528.895 479.64L531.919 473.598M528.895 479.64H550.165M525.988 485.447H546.844M484.277 485.447H463.422M484.277 485.447L482.281 491.031M546.844 485.447L550.165 479.64M482.281 491.031H461.825M531.919 473.598L535.069 467.306M531.919 473.598H553.622M550.165 479.64L553.622 473.598M553.622 473.598L557.222 467.306M512.916 467.306L514.309 464.061L514.661 463.238L515.731 460.746M512.916 467.306H535.069M512.916 467.306H490.763M535.069 467.306L538.352 460.746M535.069 467.306H557.222M557.222 467.306L560.974 460.746M515.731 460.746H538.352M515.731 460.746H493.109M541.777 453.903L538.352 460.746M541.777 453.903L545.354 446.758M541.777 453.903H564.889M538.352 460.746H560.974M493.109 460.746H470.487M493.109 460.746L492.513 462.412L490.763 467.306M560.974 460.746L564.889 453.903M490.763 467.306H468.611M545.354 446.758L549.093 439.29M545.354 446.758H568.976M564.889 453.903L568.976 446.758M568.976 446.758L573.249 439.29M524.936 439.29L528.289 431.475M524.936 439.29H549.093M524.936 439.29H500.78M549.093 439.29L553.004 431.475M549.093 439.29H573.249M573.249 439.29L577.719 431.475M528.289 431.475H553.004M528.289 431.475H503.574M557.101 423.291L553.004 431.475M557.101 423.291L561.396 414.71M557.101 423.291H582.401M553.004 431.475H577.719M503.574 431.475H478.859M503.574 431.475L500.78 439.29M577.719 431.475L582.401 423.291M500.78 439.29H476.625M561.396 414.71L565.905 405.702M561.396 414.71H587.31M582.401 423.291L587.31 414.71M587.31 414.71L592.463 405.702M539.347 405.702L543.409 396.236M539.347 405.702H565.905M539.347 405.702H512.789M565.905 405.702L570.644 396.236M565.905 405.702H592.463M592.463 405.702L597.878 396.236M543.409 396.236H570.644M543.409 396.236H516.174M575.63 386.273L570.644 396.236M575.63 386.273L580.885 375.776M575.63 386.273H603.578M570.644 396.236H597.878M516.174 396.236H488.939M516.174 396.236L512.789 405.702M597.878 396.236L603.578 386.273M512.789 405.702H486.231M580.885 375.776L586.43 364.699M580.885 375.776H609.583M603.578 386.273L609.583 375.776M609.583 375.776L615.919 364.699M556.94 364.699L561.962 352.994M556.94 364.699H586.43M556.94 364.699H527.449M586.43 364.699L592.289 352.994M586.43 364.699H615.919M615.919 364.699L622.616 352.994M561.962 352.994H592.289M561.962 352.994H531.635M598.49 340.603L592.289 352.994M598.49 340.603L605.066 327.469M598.49 340.603H629.703M592.289 352.994H622.616M531.635 352.994H501.308M531.635 352.994L527.449 364.699M622.616 352.994L629.703 340.603M527.449 364.699H497.96M605.066 327.469L612.048 313.518M605.066 327.469H637.217M629.703 340.603L637.217 327.469M637.217 327.469L645.198 313.518M578.899 313.518L585.267 298.674M578.899 313.518H612.048M578.899 313.518H545.749M612.048 313.518L619.478 298.674M612.048 313.518H645.198M645.198 313.518L653.69 298.674M585.267 298.674H619.478M585.267 298.674H551.056M627.4 282.848L619.478 298.674M627.4 282.848L635.864 265.94M627.4 282.848H662.743M619.478 298.674H653.69M551.056 298.674H516.845M551.056 298.674L545.749 313.518M653.69 298.674L662.743 282.848M545.749 313.518H512.599M635.864 265.94L644.927 247.834M635.864 265.94H672.416M662.743 282.848L672.416 265.94M672.416 265.94L682.774 247.834M607.08 247.834L615.419 228.397M607.08 247.834H644.927M607.08 247.834H569.234M644.927 247.834L654.656 228.397M644.927 247.834H682.774M682.774 247.834L693.893 228.397M615.419 228.397H654.656M615.419 228.397H576.183M665.127 207.479L654.656 228.397M665.127 207.479L676.428 184.902M665.127 207.479H705.859M654.656 228.397H693.893M576.183 228.397H536.946M576.183 228.397L569.234 247.834M693.893 228.397L705.859 207.479M693.893 228.397H733.129M569.234 247.834H531.387M676.428 184.902L688.661 160.462M676.428 184.902H718.774M705.859 207.479L718.774 184.902M733.129 228.397H758.796M718.774 184.902L732.756 160.462M718.774 184.902H758.796M644.567 160.462L655.955 133.918M644.567 160.462H688.661M644.567 160.462H600.472M688.661 160.462L701.948 133.918M688.661 160.462H732.756M732.756 160.462L747.94 133.918M732.756 160.462H758.796M655.955 133.918H701.948M655.955 133.918H609.963M716.43 104.987L701.948 133.918M716.43 104.987L732.276 73.3293M716.43 104.987H758.796M701.948 133.918H747.94M609.963 133.918H563.97M609.963 133.918L600.472 160.462M747.94 133.918H758.796M747.94 133.918L758.796 114.942M600.472 160.462H556.378M732.276 73.3293L749.689 38.5419M732.276 73.3293H758.796M696.876 38.5419L713.354 0.136419M696.876 38.5419H749.689M696.876 38.5419H644.064M749.689 38.5419L758.796 20.3478M749.689 38.5419H758.796M713.354 0.136419H657.795M713.354 0.136419L758.796 0.137125M657.795 0.136419H602.236M657.795 0.136419L644.064 38.5419M644.064 38.5419H591.251M418.002 511.38L418.087 510.788L418.172 510.194L418.257 509.597L418.343 508.996L418.603 507.18L418.69 506.569M418.002 511.38H437.003M418.002 511.38H399.001M436.007 516.023L435.282 519.4L435.045 520.507M436.007 516.023L436.626 513.141L437.003 511.38M436.007 516.023H454.676M435.045 520.507H453.394M435.045 520.507L434.345 523.77L434.116 524.839M416.077 524.839L416.001 525.371L415.701 527.473L415.478 529.027M416.077 524.839H434.116M416.077 524.839H398.039M437.003 511.38L437.13 510.788L437.258 510.194L437.386 509.597L437.515 508.996L438.035 506.569M437.003 511.38H456.004M454.676 516.023L453.71 519.4L453.394 520.507M454.676 516.023L456.004 511.38M453.394 520.507L452.769 522.691L452.307 524.305L452.155 524.839M434.116 524.839L434.002 525.371L433.776 526.426L433.551 527.473L433.439 527.993L433.217 529.027M434.116 524.839H452.155M456.004 511.38L457.032 507.788L457.38 506.569M470.193 524.839L469.066 527.993L468.696 529.027M470.193 524.839H452.155M452.155 524.839L451.104 528.511L450.956 529.027M418.69 506.569H438.035M418.69 506.569H399.345M439.105 501.581L438.035 506.569M439.105 501.581L440.216 496.405M439.105 501.581H458.807M438.035 506.569H457.38M399.345 506.569H380M399.345 506.569L399.001 511.38M457.38 506.569L458.807 501.581M399.001 511.38H380M440.216 496.405L440.5 495.081L440.931 493.07L441.369 491.031M440.216 496.405H460.288M458.807 501.581L458.989 500.945L460.288 496.405M460.288 496.405L460.476 495.744L460.667 495.081L460.857 494.413L461.825 491.031M420.912 491.031L421.711 485.447M420.912 491.031H441.369M420.912 491.031H400.456M441.369 491.031L442.566 485.447M441.369 491.031H461.825M461.825 491.031L463.017 486.863L463.219 486.157L463.422 485.447M421.711 485.447H442.566M421.711 485.447H400.855M443.812 479.64L443.971 478.898L444.131 478.153L444.292 477.403L445.108 473.598M443.812 479.64L443.183 482.572L443.028 483.296L442.873 484.017L442.566 485.447M443.812 479.64H465.083M442.566 485.447H463.422M400.855 485.447H380M400.855 485.447L400.456 491.031M463.422 485.447L465.083 479.64M400.456 491.031H380M445.108 473.598L446.287 468.107L446.458 467.306M445.108 473.598H466.811M465.083 479.64L465.508 478.153L466.811 473.598M466.811 473.598L467.477 471.269L468.611 467.306M424.305 467.306L424.77 464.061L424.887 463.238L425.244 460.746M424.305 467.306H446.458M424.305 467.306H402.153M446.458 467.306L447.865 460.746M446.458 467.306H468.611M468.611 467.306L470.487 460.746M425.244 460.746H447.865M425.244 460.746H402.622M449.333 453.903L447.865 460.746M449.333 453.903L450.866 446.758M449.333 453.903H472.444M447.865 460.746H470.487M402.622 460.746H380M402.622 460.746L402.502 462.412L402.268 465.692L402.153 467.306M470.487 460.746L472.444 453.903M402.153 467.306H380M450.866 446.758L452.061 441.188L452.468 439.29M450.866 446.758H474.488M472.444 453.903L474.488 446.758M474.488 446.758L475.544 443.066L476.625 439.29M428.312 439.29L429.43 431.475M428.312 439.29H452.468M428.312 439.29H404.156M452.468 439.29L454.145 431.475M452.468 439.29H476.625M476.625 439.29L478.859 431.475M429.43 431.475H454.145M429.43 431.475H404.715M455.9 423.291L455.453 425.373L454.145 431.475M455.9 423.291L457.741 414.71M455.9 423.291H481.2M454.145 431.475H478.859M404.715 431.475H380M404.715 431.475L404.156 439.29M478.859 431.475L481.2 423.291M404.156 439.29H380M457.741 414.71L459.673 405.702M457.741 414.71H483.655M481.2 423.291L483.655 414.71M483.655 414.71L486.231 405.702M433.116 405.702L434.47 396.236M433.116 405.702H459.673M433.116 405.702H406.558M459.673 405.702L461.704 396.236M459.673 405.702H486.231M486.231 405.702L488.939 396.236M434.47 396.236H461.704M434.47 396.236H407.235M463.842 386.273L461.704 396.236M463.842 386.273L466.094 375.776M463.842 386.273H491.789M461.704 396.236H488.939M407.235 396.236H380M407.235 396.236L406.64 404.545L406.558 405.702M488.939 396.236L491.789 386.273M406.558 405.702H380M466.094 375.776L468.47 364.699M466.094 375.776H494.791M491.789 386.273L494.025 378.452L494.791 375.776M494.791 375.776L497.96 364.699M438.98 364.699L440.654 352.994M438.98 364.699H468.47M438.98 364.699H409.49M468.47 364.699L470.981 352.994M468.47 364.699H497.96M497.96 364.699L501.308 352.994M440.654 352.994H470.981M440.654 352.994H410.327M473.639 340.603L470.981 352.994M473.639 340.603L476.456 327.469M473.639 340.603H504.852M470.981 352.994H501.308M410.327 352.994H380M410.327 352.994L409.49 364.699M501.308 352.994L504.852 340.603M409.49 364.699H380M476.456 327.469L479.449 313.518M476.456 327.469H508.609M504.852 340.603L508.609 327.469M508.609 327.469L512.599 313.518M446.3 313.518L448.422 298.674M446.3 313.518H479.449M446.3 313.518H413.15M479.449 313.518L482.634 298.674M479.449 313.518H512.599M512.599 313.518L516.845 298.674M448.422 298.674H482.634M448.422 298.674H414.211M486.029 282.848L482.634 298.674M486.029 282.848L489.656 265.94M486.029 282.848H521.371M482.634 298.674H516.845M414.211 298.674H380M414.211 298.674L413.15 313.518M516.845 298.674L521.371 282.848M413.15 313.518H380M489.656 265.94L493.54 247.834M489.656 265.94H526.208M521.371 282.848L526.208 265.94M526.208 265.94L531.387 247.834M455.693 247.834L458.473 228.397M455.693 247.834H493.54M455.693 247.834H417.847M493.54 247.834L497.71 228.397M493.54 247.834H531.387M531.387 247.834L536.946 228.397M458.473 228.397H497.71M458.473 228.397H419.237M502.197 207.479L497.71 228.397M502.197 207.479L507.04 184.902M502.197 207.479H542.93M497.71 228.397H536.946M419.237 228.397H380M419.237 228.397L417.847 247.834M536.946 228.397L542.93 207.479M417.847 247.834H380M507.04 184.902L512.283 160.462M507.04 184.902H549.387M542.93 207.479L549.387 184.902M549.387 184.902L556.378 160.462M468.189 160.462L471.985 133.918M468.189 160.462H512.283M468.189 160.462H424.095M512.283 160.462L517.978 133.918M512.283 160.462H556.378M556.378 160.462L563.97 133.918M471.985 133.918H517.978M471.985 133.918H425.993M524.184 104.987L517.978 133.918M524.184 104.987L530.975 73.3293M524.184 104.987H572.246M517.978 133.918H563.97M425.993 133.918H380M425.993 133.918L424.095 160.462M563.97 133.918L572.246 104.987M424.095 160.462H380M530.975 73.3293L538.438 38.5419M530.975 73.3293H581.301M572.246 104.987L581.301 73.3293M581.301 73.3293L591.251 38.5419M485.625 38.5419L491.118 0.136419M485.625 38.5419H538.438M485.625 38.5419H432.813M538.438 38.5419L546.677 0.136419M538.438 38.5419H591.251M591.251 38.5419L602.236 0.136419M546.677 0.136419H491.118M546.677 0.136419H602.236M491.118 0.136419H435.559M435.559 0.136419H380M435.559 0.136419L432.813 38.5419M432.813 38.5419H380M341.998 511.38L341.913 510.788L341.828 510.194L341.743 509.597L341.657 508.996L341.484 507.788L341.397 507.18L341.31 506.569M341.998 511.38H360.999M341.998 511.38H322.997M361.331 516.023L361.652 520.507M361.331 516.023L360.999 511.38M361.331 516.023H380M361.652 520.507L361.691 521.057L361.73 521.604L361.769 522.149L361.961 524.839M361.652 520.507H380M343.923 524.839L343.999 525.371L344.299 527.473L344.522 529.027M343.923 524.839H361.961M343.923 524.839H325.884M360.999 511.38L360.956 510.788L360.914 510.194L360.871 509.597L360.655 506.569M360.999 511.38H380M380 516.023V520.507M380 516.023V511.38M380 520.507V524.839M361.961 524.839H380M361.961 524.839L362.075 526.426L362.113 526.951L362.261 529.027M380 511.38V506.569M398.039 524.839L397.925 526.426L397.887 526.951L397.85 527.473L397.813 527.993L397.776 528.511L397.739 529.027M398.039 524.839H380M380 524.839V529.027M341.31 506.569H360.655M341.31 506.569H321.965M360.298 501.581L360.253 500.945L360.207 500.305L359.928 496.405M360.298 501.581L360.655 506.569M360.298 501.581H380M360.655 506.569H380M321.965 506.569H302.62M321.965 506.569L322.226 507.788L322.356 508.393L322.485 508.996L322.614 509.597L322.742 510.194L322.87 510.788L322.997 511.38M380 506.569V501.581M322.997 511.38H303.996M359.928 496.405L359.544 491.031M359.928 496.405H380M380 501.581V496.405M380 496.405V491.031M339.088 491.031L338.289 485.447M339.088 491.031H359.544M339.088 491.031H318.632M359.544 491.031L359.145 485.447M359.544 491.031H380M380 491.031V485.447M338.289 485.447H359.145M338.289 485.447H317.434M358.729 479.64L359.145 485.447M358.729 479.64L358.297 473.598M358.729 479.64H380M359.145 485.447H380M317.434 485.447H296.578M317.434 485.447L318.632 491.031M380 485.447V479.64M318.632 491.031H298.175M358.297 473.598L358.131 471.269L357.962 468.904L357.847 467.306M358.297 473.598H380M380 479.64V473.598M380 473.598V467.306M335.695 467.306L335.23 464.061L335.113 463.238L334.756 460.746M335.695 467.306H357.847M335.695 467.306H313.542M357.847 467.306L357.732 465.692L357.498 462.412L357.378 460.746M357.847 467.306H380M380 467.306V460.746M334.756 460.746H357.378M334.756 460.746H312.135M356.889 453.903L356.951 454.775L357.378 460.746M356.889 453.903L356.378 446.758M356.889 453.903H380M357.378 460.746H380M312.135 460.746H289.513M312.135 460.746L313.542 467.306M380 460.746V453.903M313.542 467.306H291.389M356.378 446.758L355.844 439.29M356.378 446.758H380M380 453.903V446.758M380 446.758V439.29M331.688 439.29L330.57 431.475M331.688 439.29H355.844M331.688 439.29H307.532M355.844 439.29L355.285 431.475M355.844 439.29H380M380 439.29V431.475M330.57 431.475H355.285M330.57 431.475H305.855M354.7 423.291L355.285 431.475M354.7 423.291L354.086 414.71M354.7 423.291H380M355.285 431.475H380M305.855 431.475H281.141M305.855 431.475L307.532 439.29M380 431.475V423.291M307.532 439.29H283.375M354.086 414.71L353.442 405.702M354.086 414.71H380M380 423.291V414.71M380 414.71V405.702M326.884 405.702L325.53 396.236M326.884 405.702H353.442M326.884 405.702H300.327M353.442 405.702L352.765 396.236M353.442 405.702H380M380 405.702V396.236M325.53 396.236H352.765M325.53 396.236H298.296M352.053 386.273L352.765 396.236M352.053 386.273L351.302 375.776M352.053 386.273H380M352.765 396.236H380M298.296 396.236H271.061M298.296 396.236L300.327 405.702M380 396.236V386.273M300.327 405.702H273.769M351.302 375.776L350.51 364.699M351.302 375.776H380M380 386.273V375.776M380 375.776V364.699M321.02 364.699L319.346 352.994M321.02 364.699H350.51M321.02 364.699H291.53M350.51 364.699L349.673 352.994M350.51 364.699H380M380 364.699V352.994M319.346 352.994H349.673M319.346 352.994H289.019M348.787 340.603L349.673 352.994M348.787 340.603L347.848 327.469M348.787 340.603H380M349.673 352.994H380M289.019 352.994H258.692M289.019 352.994L291.53 364.699M380 352.994V340.603M291.53 364.699H262.04M347.848 327.469L346.85 313.518M347.848 327.469H380M380 340.603V327.469M380 327.469V313.518M313.7 313.518L311.578 298.674M313.7 313.518H346.85M313.7 313.518H280.551M346.85 313.518L345.789 298.674M346.85 313.518H380M380 313.518V298.674M311.578 298.674H345.789M311.578 298.674H277.366M344.657 282.848L345.789 298.674M344.657 282.848L343.448 265.94M344.657 282.848H380M345.789 298.674H380M277.366 298.674H243.155M277.366 298.674L280.551 313.518M380 298.674V282.848M280.551 313.518H247.401M343.448 265.94L342.153 247.834M343.448 265.94H380M380 282.848V265.94M380 265.94V247.834M304.307 247.834L301.527 228.397M304.307 247.834H342.153M304.307 247.834H266.46M342.153 247.834L340.763 228.397M342.153 247.834H380M380 247.834V228.397M301.527 228.397H340.763M301.527 228.397H262.29M339.268 207.479L340.763 228.397M339.268 207.479L337.653 184.902M339.268 207.479H380M340.763 228.397H380M262.29 228.397H223.054M262.29 228.397L266.46 247.834M380 228.397V207.479M266.46 247.834H228.613M337.653 184.902L335.905 160.462M337.653 184.902H380M380 207.479V184.902M380 184.902V160.462M291.811 160.462L288.015 133.918M291.811 160.462H335.905M291.811 160.462H247.717M335.905 160.462L334.007 133.918M335.905 160.462H380M380 160.462V133.918M288.015 133.918H334.007M288.015 133.918H242.022M331.939 104.987L334.007 133.918M331.939 104.987L329.675 73.3293M331.939 104.987H380M334.007 133.918H380M242.022 133.918H196.03M242.022 133.918L247.717 160.462M380 133.918V104.987M247.717 160.462H203.622M329.675 73.3293L327.187 38.5419M329.675 73.3293H380M380 104.987V73.3293M380 73.3293V38.5419M274.375 38.5419L268.882 0.136419M274.375 38.5419H327.187M274.375 38.5419H221.562M327.187 38.5419L324.441 0.136419M327.187 38.5419H380M380 38.5419V0.136419M324.441 0.136419H268.882M324.441 0.136419H380M268.882 0.136419H213.323M213.323 0.136419H157.764M213.323 0.136419L221.562 38.5419M221.562 38.5419H168.749M265.994 511.38L264.971 508.996L263.93 506.569M265.994 511.38H284.995M265.994 511.38H246.993M286.655 516.023L288.258 520.507M286.655 516.023L284.995 511.38M286.655 516.023H305.324M288.258 520.507H306.606M288.258 520.507L289.424 523.77L289.807 524.839M271.768 524.839H289.807M271.768 524.839L272.449 526.426L273.565 529.027M271.768 524.839H253.73M284.995 511.38L283.275 506.569M284.995 511.38H303.996M305.324 516.023L306.606 520.507M305.324 516.023L303.996 511.38M306.606 520.507L307.231 522.691L307.693 524.305L307.845 524.839M289.807 524.839H307.845M289.807 524.839L290.934 527.993L291.304 529.027M303.996 511.38L302.968 507.788L302.62 506.569M325.884 524.839L325.998 525.371L326.224 526.426L326.561 527.993L326.783 529.027M325.884 524.839H307.845M307.845 524.839L307.997 525.371L308.299 526.426L309.043 529.027M263.93 506.569H283.275M263.93 506.569H244.584M281.491 501.581L281.718 502.214L281.943 502.845L282.835 505.34L283.275 506.569M281.491 501.581L280.11 497.717L279.64 496.405M281.491 501.581H301.193M283.275 506.569H302.62M244.584 506.569H225.239M244.584 506.569L246.399 510.194L246.993 511.38M302.62 506.569L301.193 501.581M246.993 511.38H227.992M279.64 496.405L279.404 495.744L279.167 495.081L278.448 493.07L278.206 492.394L277.719 491.031M279.64 496.405H299.712M301.193 501.581L301.011 500.945L299.712 496.405M299.712 496.405L299.524 495.744L299.333 495.081L299.143 494.413L298.175 491.031M257.263 491.031L254.867 485.447M257.263 491.031H277.719M257.263 491.031H236.807M277.719 491.031L275.723 485.447M277.719 491.031H298.175M298.175 491.031L296.578 485.447M254.867 485.447H275.723M254.867 485.447H234.012M273.647 479.64L275.723 485.447M273.647 479.64L271.486 473.598M273.647 479.64H294.917M275.723 485.447H296.578M234.012 485.447H213.156M234.012 485.447L236.807 491.031M296.578 485.447L294.917 479.64M236.807 491.031H216.35M271.486 473.598L269.237 467.306M271.486 473.598H293.189M294.917 479.64L294.492 478.153L293.189 473.598M293.189 473.598L292.523 471.269L291.846 468.904L291.389 467.306M247.084 467.306L245.691 464.061L244.27 460.746M247.084 467.306H269.237M247.084 467.306H224.931M269.237 467.306L266.891 460.746M269.237 467.306H291.389M291.389 467.306L289.513 460.746M244.27 460.746H266.891M244.27 460.746H221.648M264.445 453.903L266.891 460.746M264.445 453.903L261.89 446.758M264.445 453.903H287.556M266.891 460.746H289.513M221.648 460.746H199.026M221.648 460.746L224.931 467.306M289.513 460.746L287.556 453.903M224.931 467.306H202.778M261.89 446.758L261.233 444.922L259.22 439.29M261.89 446.758H285.512M287.556 453.903L285.512 446.758M285.512 446.758L285.25 445.843L284.456 443.066L283.375 439.29M235.064 439.29L231.711 431.475M235.064 439.29H259.22M235.064 439.29H210.907M259.22 439.29L256.426 431.475M259.22 439.29H283.375M283.375 439.29L281.141 431.475M231.711 431.475H256.426M231.711 431.475H206.996M253.5 423.291L255.345 428.451L256.426 431.475M253.5 423.291L250.431 414.71M253.5 423.291H278.8M256.426 431.475H281.141M206.996 431.475H182.281M206.996 431.475L210.907 439.29M281.141 431.475L278.8 423.291M210.907 439.29H186.751M250.431 414.71L247.211 405.702M250.431 414.71H276.345M278.8 423.291L276.345 414.71M276.345 414.71L273.769 405.702M220.653 405.702L216.591 396.236M220.653 405.702H247.211M220.653 405.702H194.095M247.211 405.702L243.826 396.236M247.211 405.702H273.769M273.769 405.702L271.061 396.236M216.591 396.236H243.826M216.591 396.236H189.356M240.264 386.273L243.826 396.236M240.264 386.273L236.511 375.776M240.264 386.273H268.211M243.826 396.236H271.061M189.356 396.236H162.122M189.356 396.236L194.095 405.702M271.061 396.236L268.211 386.273M194.095 405.702H167.537M236.511 375.776L232.551 364.699M236.511 375.776H265.209M268.211 386.273L265.209 375.776M265.209 375.776L262.04 364.699M203.06 364.699L198.038 352.994M203.06 364.699H232.551M203.06 364.699H173.57M232.551 364.699L228.365 352.994M232.551 364.699H262.04M262.04 364.699L258.692 352.994M198.038 352.994H228.365M198.038 352.994H167.711M223.935 340.603L228.365 352.994M223.935 340.603L219.239 327.469M223.935 340.603H255.148M228.365 352.994H258.692M167.711 352.994H137.384M167.711 352.994L173.57 364.699M258.692 352.994L255.148 340.603M173.57 364.699H144.081M219.239 327.469L214.251 313.518M219.239 327.469H251.391M255.148 340.603L251.391 327.469M251.391 327.469L247.401 313.518M181.101 313.518L174.733 298.674M181.101 313.518H214.251M181.101 313.518H147.952M214.251 313.518L208.944 298.674M214.251 313.518H247.401M247.401 313.518L243.155 298.674M174.733 298.674H208.944M174.733 298.674H140.522M203.286 282.848L208.944 298.674M203.286 282.848L197.24 265.94M203.286 282.848H238.629M208.944 298.674H243.155M140.522 298.674H106.31M140.522 298.674L147.952 313.518M243.155 298.674L238.629 282.848M147.952 313.518H114.802M197.24 265.94L190.767 247.834M197.24 265.94H233.792M238.629 282.848L233.792 265.94M233.792 265.94L228.613 247.834M152.92 247.834L144.581 228.397M152.92 247.834H190.767M152.92 247.834H115.073M190.767 247.834L183.817 228.397M190.767 247.834H228.613M228.613 247.834L223.054 228.397M144.581 228.397H183.817M144.581 228.397H105.344M176.338 207.479L183.817 228.397M176.338 207.479L168.266 184.902M176.338 207.479H217.07M183.817 228.397H223.054M105.344 228.397H66.1075M105.344 228.397L115.073 247.834M223.054 228.397L217.07 207.479M115.073 247.834H77.226M168.266 184.902L159.528 160.462M168.266 184.902H210.613M217.07 207.479L210.613 184.902M210.613 184.902L203.622 160.462M115.433 160.462L104.045 133.918M115.433 160.462H159.528M115.433 160.462H71.3389M159.528 160.462L150.037 133.918M159.528 160.462H203.622M203.622 160.462L196.03 133.918M104.045 133.918H150.037M104.045 133.918H58.0522M139.693 104.987L150.037 133.918M139.693 104.987L128.374 73.3293M139.693 104.987H187.754M150.037 133.918H196.03M58.0522 133.918H12.0597M58.0522 133.918L71.3389 160.462M196.03 133.918L187.754 104.987M71.3389 160.462H27.2446M128.374 73.3293L115.937 38.5419M128.374 73.3293H178.7M187.754 104.987L178.7 73.3293M178.7 73.3293L168.749 38.5419M63.1237 38.5419L46.6461 0.136419M63.1237 38.5419H115.937M63.1237 38.5419H10.3109M115.937 38.5419L102.205 0.136419M115.937 38.5419H168.749M168.749 38.5419L157.764 0.136419M102.205 0.136419H46.6461M102.205 0.136419H157.764M46.6461 0.136419L1.204 0.137125M10.3109 38.5419L1.204 20.3478M10.3109 38.5419H1.204M189.99 511.38L186.549 506.569M189.99 511.38H208.991M189.99 511.38H170.989M211.979 516.023L214.864 520.507M211.979 516.023L208.991 511.38M211.979 516.023H230.648M214.864 520.507H233.213M214.864 520.507L217.652 524.839M199.613 524.839H217.652M199.613 524.839L200.749 526.426L202.609 529.027M199.613 524.839H181.575M208.991 511.38L205.894 506.569M208.991 511.38H227.992M230.648 516.023L233.213 520.507M230.648 516.023L227.992 511.38M233.213 520.507L235.079 523.77L235.691 524.839M217.652 524.839L217.994 525.371L220.348 529.027M217.652 524.839H235.691M227.992 511.38L225.239 506.569M253.73 524.839L255.826 529.027M253.73 524.839H235.691M235.691 524.839L236.599 526.426L238.087 529.027M186.549 506.569H205.894M186.549 506.569H167.204M202.684 501.581L205.894 506.569M202.684 501.581L199.353 496.405M202.684 501.581H222.386M205.894 506.569H225.239M167.204 506.569H147.859M167.204 506.569L170.989 511.38M225.239 506.569L222.386 501.581M170.989 511.38H151.988M199.353 496.405L198.5 495.081L195.894 491.031M199.353 496.405H219.425M222.386 501.581L219.425 496.405M219.425 496.405L216.35 491.031M175.438 491.031L174.947 490.344L171.445 485.447M175.438 491.031H195.894M175.438 491.031H154.982M195.894 491.031L192.301 485.447M195.894 491.031H216.35M216.35 491.031L215.958 490.344L213.156 485.447M171.445 485.447H192.301M171.445 485.447H150.59M188.564 479.64L192.301 485.447M188.564 479.64L184.675 473.598M188.564 479.64H209.835M192.301 485.447H213.156M150.59 485.447H129.734M150.59 485.447L154.982 491.031M213.156 485.447L209.835 479.64M154.982 491.031H134.526M184.675 473.598L180.625 467.306M184.675 473.598H206.378M209.835 479.64L206.378 473.598M206.378 473.598L202.778 467.306M158.473 467.306L153.783 460.746M158.473 467.306H180.625M158.473 467.306H136.32M180.625 467.306L176.404 460.746M180.625 467.306H202.778M202.778 467.306L199.026 460.746M153.783 460.746H176.404M153.783 460.746H131.161M172 453.903L176.404 460.746M172 453.903L167.402 446.758M172 453.903H195.111M176.404 460.746H199.026M131.161 460.746H108.539M131.161 460.746L136.32 467.306M199.026 460.746L195.111 453.903M136.32 467.306H114.167M167.402 446.758L162.595 439.29M167.402 446.758H191.024M195.111 453.903L191.024 446.758M191.024 446.758L186.751 439.29M138.439 439.29L132.851 431.475M138.439 439.29H162.595M138.439 439.29H114.283M162.595 439.29L157.566 431.475M162.595 439.29H186.751M186.751 439.29L182.281 431.475M132.851 431.475H157.566M132.851 431.475H108.137M152.299 423.291L157.566 431.475M152.299 423.291L146.776 414.71M152.299 423.291H177.599M157.566 431.475H182.281M108.137 431.475H83.4217M108.137 431.475L114.283 439.29M182.281 431.475L177.599 423.291M114.283 439.29H90.1268M146.776 414.71L140.979 405.702M146.776 414.71H172.69M177.599 423.291L172.69 414.71M172.69 414.71L167.537 405.702M114.421 405.702L107.652 396.236M114.421 405.702H140.979M114.421 405.702H87.8638M140.979 405.702L134.887 396.236M140.979 405.702H167.537M167.537 405.702L162.122 396.236M107.652 396.236H134.887M107.652 396.236H80.417M128.475 386.273L134.887 396.236M128.475 386.273L121.72 375.776M128.475 386.273H156.422M134.887 396.236H162.122M80.417 396.236H53.1823M80.417 396.236L87.8638 405.702M162.122 396.236L156.422 386.273M87.8638 405.702H61.3059M121.72 375.776L114.591 364.699M121.72 375.776H150.417M156.422 386.273L150.417 375.776M150.417 375.776L144.081 364.699M85.1006 364.699L76.7304 352.994M85.1006 364.699H114.591M85.1006 364.699H55.6109M114.591 364.699L107.057 352.994M114.591 364.699H144.081M144.081 364.699L137.384 352.994M76.7304 352.994H107.057M76.7304 352.994H46.4034M99.0837 340.603L107.057 352.994M99.0837 340.603L90.6302 327.469M99.0837 340.603H130.296M107.057 352.994H137.384M46.4034 352.994H16.0765M46.4034 352.994L55.6109 364.699M137.384 352.994L130.296 340.603M55.6109 364.699H26.1209M90.6302 327.469L81.652 313.518M90.6302 327.469H122.783M130.296 340.603L122.783 327.469M122.783 327.469L114.802 313.518M48.5022 313.518L37.888 298.674M48.5022 313.518H81.652M48.5022 313.518H15.3524M81.652 313.518L72.0992 298.674M81.652 313.518H114.802M114.802 313.518L106.31 298.674M37.888 298.674H72.0992M37.888 298.674H3.67683M61.914 282.848L72.0992 298.674M61.914 282.848L51.0322 265.94M61.914 282.848H97.2568M72.0992 298.674H106.31M3.67683 298.674L15.3524 313.518M3.67683 298.674H1.204M3.67683 298.674L1.204 295.53M106.31 298.674L97.2568 282.848M15.3524 313.518H1.204M51.0322 265.94L39.3795 247.834M51.0322 265.94H87.5841M97.2568 282.848L87.5841 265.94M87.5841 265.94L77.226 247.834M1.53268 247.834H39.3795M1.53268 247.834H1.204M1.53268 247.834L1.204 247.374M39.3795 247.834L26.8706 228.397M39.3795 247.834H77.226M77.226 247.834L66.1075 228.397M13.4083 207.479L26.8706 228.397M13.4083 207.479H54.1407M13.4083 207.479H1.204M13.4083 207.479L1.204 188.515M26.8706 228.397H66.1075M26.8706 228.397H1.204M66.1075 228.397L54.1407 207.479M54.1407 207.479L41.2258 184.902M41.2258 184.902L27.2446 160.462M41.2258 184.902H1.204M27.2446 160.462L12.0597 133.918M27.2446 160.462H1.204M12.0597 133.918H1.204M12.0597 133.918L1.204 114.942M113.985 511.38L109.169 506.569M113.985 511.38H132.987M113.985 511.38H94.9844M137.303 516.023L141.471 520.507M137.303 516.023L132.987 511.38M137.303 516.023H155.972M141.471 520.507H159.819M141.471 520.507L145.498 524.839M127.459 524.839H145.498M127.459 524.839L131.652 529.027M127.459 524.839H109.421M132.987 511.38L128.514 506.569M132.987 511.38H151.988M155.972 516.023L159.819 520.507M155.972 516.023L151.988 511.38M159.819 520.507L163.536 524.839M145.498 524.839L145.991 525.371L149.391 529.027M145.498 524.839H163.536M151.988 511.38L147.859 506.569M181.575 524.839L184.869 529.027M181.575 524.839H163.536M163.536 524.839L163.992 525.371L167.13 529.027M109.169 506.569H128.514M109.169 506.569H89.8241M123.877 501.581L128.514 506.569M123.877 501.581L119.065 496.405M123.877 501.581H143.579M128.514 506.569H147.859M89.8241 506.569H70.4791M89.8241 506.569L94.9844 511.38M147.859 506.569L143.579 501.581M94.9844 511.38H75.9835M119.065 496.405L114.069 491.031M119.065 496.405H139.137M143.579 501.581L143.032 500.945L139.137 496.405M139.137 496.405L134.526 491.031M93.6133 491.031L88.0233 485.447M93.6133 491.031H114.069M93.6133 491.031H73.1571M114.069 491.031L108.879 485.447M114.069 491.031H134.526M134.526 491.031L129.734 485.447M88.0233 485.447H108.879M88.0233 485.447H67.1678M103.481 479.64L108.879 485.447M103.481 479.64L97.8645 473.598M103.481 479.64H124.752M108.879 485.447H129.734M67.1678 485.447H46.3123M67.1678 485.447L73.1571 491.031M129.734 485.447L124.752 479.64M73.1571 491.031H52.7009M97.8645 473.598L92.0148 467.306M97.8645 473.598H119.567M124.752 479.64L119.567 473.598M119.567 473.598L114.167 467.306M69.862 467.306L63.2954 460.746M69.862 467.306H92.0148M69.862 467.306H47.7091M92.0148 467.306L85.9174 460.746M92.0148 467.306H114.167M114.167 467.306L108.539 460.746M63.2954 460.746H85.9174M63.2954 460.746H40.6738M79.556 453.903L85.9174 460.746M79.556 453.903L72.9136 446.758M79.556 453.903H102.667M85.9174 460.746H108.539M40.6738 460.746H18.0521M40.6738 460.746L47.7091 467.306M108.539 460.746L102.667 453.903M47.7091 467.306H25.5566M72.9136 446.758L65.9706 439.29M72.9136 446.758H96.5355M102.667 453.903L96.5355 446.758M96.5355 446.758L90.1268 439.29M41.8145 439.29L33.992 431.475M41.8145 439.29H65.9706M41.8145 439.29H17.6587M65.9706 439.29L58.7068 431.475M65.9706 439.29H90.1268M90.1268 439.29L83.4217 431.475M33.992 431.475H58.7068M51.0985 423.291L58.7068 431.475M51.0985 423.291L43.1217 414.71M51.0985 423.291H76.399M58.7068 431.475H83.4217M83.4217 431.475L76.399 423.291M17.6587 439.29H1.204M43.1217 414.71L34.748 405.702M43.1217 414.71H69.0353M76.399 423.291L69.0353 414.71M69.0353 414.71L61.3059 405.702M8.19002 405.702H34.748M8.19002 405.702H1.204M8.19002 405.702L1.204 398.724M34.748 405.702L25.9473 396.236M34.748 405.702H61.3059M61.3059 405.702L53.1823 396.236M16.6865 386.273L25.9473 396.236M16.6865 386.273L6.92816 375.776M16.6865 386.273H44.6338M16.6865 386.273H1.204M25.9473 396.236H53.1823M25.9473 396.236H1.204M53.1823 396.236L44.6338 386.273M1.12706 398.647L1.204 398.724M6.92816 375.776H35.6259M6.92816 375.776H1.204M6.92816 375.776L1.204 369.618M44.6338 386.273L35.6259 375.776M35.6259 375.776L26.1209 364.699M26.1209 364.699L16.0765 352.994M26.1209 364.699H1.204M5.44494 340.603L16.0765 352.994M5.44494 340.603H1.204M5.44494 340.603L1.204 335.661M16.0765 352.994H1.204M37.9815 511.38L31.789 506.569M37.9815 511.38H56.9825M37.9815 511.38H18.9802M62.6266 516.023L68.0769 520.507M62.6266 516.023L56.9825 511.38M62.6266 516.023H81.2957M68.0769 520.507H86.4252M68.0769 520.507L73.3429 524.839M55.3044 524.839H73.3429M55.3044 524.839L60.6951 529.027M55.3044 524.839H37.2658M56.9825 511.38L51.134 506.569M56.9825 511.38H75.9835M81.2957 516.023L86.4252 520.507M81.2957 516.023L75.9835 511.38M86.4252 520.507L91.3815 524.839M73.3429 524.839H91.3815M73.3429 524.839L78.4346 529.027M75.9835 511.38L70.4791 506.569M109.421 524.839L113.913 529.027M109.421 524.839H91.3815M91.3815 524.839L96.1737 529.027M31.789 506.569H51.134M31.789 506.569H12.444M45.0698 501.581L51.134 506.569M45.0698 501.581L38.7778 496.405M45.0698 501.581H64.7715M51.134 506.569H70.4791M12.444 506.569L18.9802 511.38M12.444 506.569H1.204M70.4791 506.569L64.7715 501.581M18.9802 511.38H1.204M38.7778 496.405L32.2448 491.031M38.7778 496.405H58.8497M64.7715 501.581L58.8497 496.405M58.8497 496.405L52.7009 491.031M11.7886 491.031L4.60132 485.447M11.7886 491.031H32.2448M11.7886 491.031H1.204M32.2448 491.031L25.4568 485.447M32.2448 491.031H52.7009M52.7009 491.031L46.3123 485.447M18.3986 479.64L25.4568 485.447M18.3986 479.64L11.0535 473.598M18.3986 479.64H39.6692M18.3986 479.64H1.204M25.4568 485.447H4.60132M25.4568 485.447H46.3123M4.60132 485.447L1.204 482.808M4.60132 485.447H1.204M46.3123 485.447L39.6692 479.64M11.0535 473.598L3.40378 467.306M11.0535 473.598H32.7561M11.0535 473.598H1.204M39.6692 479.64L32.7561 473.598M32.7561 473.598L25.5566 467.306M3.40378 467.306H25.5566M3.40378 467.306L1.204 465.496M3.40378 467.306H1.204M25.5566 467.306L18.0521 460.746M10.2229 453.903L18.0521 460.746M10.2229 453.903L2.04761 446.758M10.2229 453.903H1.204M18.0521 460.746H1.204M1.08562 460.746H1.204M2.04761 446.758H1.204M2.04761 446.758L1.204 446.021M1 445.843L1.204 446.021M6.6196 516.023L13.0315 520.507M6.6196 516.023H1.204M6.6196 516.023L1.204 512.237M13.0315 520.507L19.2272 524.839M13.0315 520.507H1.204M37.2658 524.839L42.956 529.027M37.2658 524.839H19.2272M19.2272 524.839L25.2169 529.027M19.2272 524.839H1.204M628.348 529.027H646.087M628.348 529.027H610.609M641.742 533.078L642.815 532.078L646.087 529.027M641.742 533.078H659.191M646.087 529.027H663.826M659.191 533.078L660.335 532.078L660.912 531.575L663.826 529.027M663.826 529.027H681.565M681.565 529.027H699.305M610.609 529.027H592.87M699.305 529.027H717.044M717.044 529.027L711.539 533.078M717.044 529.027H734.783M711.539 533.078H728.989M557.391 529.027H575.131M557.391 529.027H539.652M571.944 533.078L572.731 532.078L573.127 531.575L575.131 529.027M571.944 533.078H589.393M575.131 529.027H592.87M589.393 533.078L592.87 529.027M539.652 529.027H521.913M486.435 529.027H504.174M486.435 529.027H468.696M502.146 533.078L502.396 532.58L502.647 532.078L502.899 531.575L504.174 529.027M502.146 533.078H519.595M504.174 529.027H521.913M519.595 533.078L521.913 529.027M468.696 529.027H450.956M415.478 529.027H433.217M415.478 529.027H397.739M432.348 533.078L433.217 529.027M432.348 533.078H449.798M433.217 529.027H450.956M449.798 533.078L449.941 532.58L450.084 532.078L450.228 531.575L450.956 529.027M397.739 529.027H380M344.522 529.027H362.261M344.522 529.027H326.783M362.551 533.078L362.261 529.027M362.551 533.078H380M362.261 529.027H380M380 533.078V529.027M326.783 529.027H309.043M273.565 529.027H291.304M273.565 529.027H255.826M292.753 533.078L292.395 532.078L291.671 530.053L291.304 529.027M292.753 533.078H310.202M291.304 529.027H309.043M310.202 533.078L310.059 532.58L309.916 532.078L309.772 531.575L309.043 529.027M255.826 529.027H238.087M202.609 529.027H220.348M202.609 529.027H184.869M222.955 533.078L222.311 532.078L221.987 531.575L220.348 529.027M222.955 533.078H240.405M220.348 529.027H238.087M240.405 533.078L240.119 532.58L238.087 529.027M184.869 529.027H167.13M131.652 529.027H149.391M131.652 529.027H113.913M153.157 533.078L152.227 532.078L151.759 531.575L149.391 529.027M153.157 533.078H170.607M149.391 529.027H167.13M170.607 533.078L170.178 532.58L167.13 529.027M113.913 529.027H96.1737M60.6951 529.027H78.4346M60.6951 529.027H42.956M83.3593 533.078L78.4346 529.027M83.3593 533.078H100.809M78.4346 529.027H96.1737M100.809 533.078L99.6645 532.078L99.0884 531.575L96.1737 529.027M42.956 529.027H25.2169M13.5618 533.078L7.47781 529.027M13.5618 533.078H31.0113M13.5618 533.078H1.204M7.47781 529.027H25.2169M7.47781 529.027L1.204 524.849M7.47781 529.027H1.204M31.0113 533.078L29.5806 532.078L25.2169 529.027M728.989 533.078L730.419 532.078L734.783 529.027M734.783 529.027H752.522M752.522 529.027L758.796 524.849M752.522 529.027H758.796M758.796 335.661V340.603M758.796 335.661V327.469M758.796 340.603V352.994M758.796 327.469V325.02V313.518M758.796 313.518V298.674M758.796 431.475V439.29M758.796 431.475V423.949M758.796 533.078V529.027M758.796 529.027V524.849M758.796 524.849L758.811 524.839H758.796M758.796 524.849V524.839M758.796 524.839V520.507M758.796 520.507V516.023M758.796 516.023V512.237M758.796 512.237V511.38M758.796 511.38V506.569M758.796 506.569V501.581M758.796 501.581V498.297M758.796 498.297V496.405M758.796 496.405V491.031M758.796 491.031V485.447M758.796 485.447V482.808M758.796 482.808V479.64M758.796 479.64V473.598M758.796 473.598V467.306M758.796 467.306V465.496M758.796 465.496V460.746M758.796 460.746V453.903M758.796 453.903V446.758M758.796 446.758V446.021M758.796 446.021V439.29M758.796 423.291V414.71M758.796 423.291V423.949M758.796 414.71V405.702M758.796 405.702V398.724M758.796 398.724V396.236M758.796 396.236V386.273M758.796 386.273V375.776M758.796 375.776V369.618M758.796 369.618V364.699M758.796 364.699V352.994M758.796 298.674V295.53M758.796 295.53V282.848M758.796 282.848V265.94M758.796 265.94V247.834M758.796 247.834V247.374M758.796 247.374V228.397M758.796 228.397V207.479M758.796 207.479V188.515M758.796 188.515V184.902M758.796 184.902V160.462M758.796 160.462V133.918M758.796 133.918V114.942M758.796 114.942V104.987M758.796 104.987V73.3293M758.796 73.3293V38.5419M758.796 38.5419V20.3478M758.796 20.3478V0.137125M758.796 0.137125V-9.32453e-06H1.204V0.137125M1.204 423.291V414.71M1.204 423.291V423.949M1.204 423.949V431.475M1.204 431.475V439.29M1.204 439.29V446.021M1.204 446.021V446.758M1.204 446.758V453.903M1.204 453.903V460.746M1.204 460.746V465.496M1.204 465.496V467.306M1.204 467.306V473.598M1.204 473.598V479.64M1.204 479.64V482.808M1.204 482.808V485.447M1.204 485.447V491.031M1.204 491.031V496.405M1.204 496.405V498.297M1.204 498.297V501.581M1.204 501.581V506.569M1.204 506.569V511.38M1.204 511.38V512.237M1.204 512.237V516.023M1.204 516.023V520.507M1.204 520.507V524.839M1.204 524.839H1.18861L1.204 524.849M1.204 524.839V524.849M1.204 524.849V529.027M1.204 529.027V533.078M1.204 0.137125V20.3478M1.204 20.3478V38.5419M1.204 38.5419V73.3286M1.204 73.3286V104.987M1.204 104.987V114.942M1.204 114.942V133.918M1.204 133.918V160.462M1.204 160.462V184.902M1.204 184.902V188.515M1.204 188.515V207.479M1.204 207.479V228.397M1.204 228.397V247.374M1.204 247.374V247.834M1.204 247.834V265.94M1.204 265.94V282.848M1.204 282.848V295.53M1.204 295.53V298.674M1.204 298.674V313.518M1.204 313.518V327.469M1.204 327.469V335.661M1.204 335.661V340.603M1.204 340.603V352.994M1.204 352.994V364.699M1.204 364.699V369.618M1.204 369.618V375.776M1.204 375.776V386.273M1.204 386.273V396.236M1.204 396.236V398.724M1.204 398.724V405.702M1.204 405.702V414.71" stroke="url(#paint0_radial_146_164)" stroke-width="1.2" stroke-miterlimit="10" stroke-linecap="round" stroke-linejoin="round"/>
</g>
<defs>
<radialGradient id="paint0_radial_146_164" cx="0" cy="0" r="1" gradientUnits="userSpaceOnUse" gradientTransform="translate(380 268.5) rotate(-90) scale(194.656 273.668)">
<stop offset="0.745" stop-color="#081021"/>
<stop offset="1" stop-color="#081021" stop-opacity="0.49"/>
</radialGradient>
</defs>
</svg>
