<svg width="1440" height="1021" viewBox="0 0 1440 1021" fill="none" xmlns="http://www.w3.org/2000/svg">
<g opacity="0.05">
<path d="M1212.78 1.88495C1212.78 1.88495 922.66 -13.496 935.069 152.195C947.478 317.886 831.838 278.636 715.161 330.477C598.484 382.319 639.017 456.836 594.331 512.743C549.646 568.65 439.592 537.888 409.804 632.423C380.016 726.958 337.599 793.245 189.896 804.429C42.1934 815.613 41.2761 836.014 13.9698 892.938C-13.3364 949.863 -57.1043 1021 -194 1021H1439.6V4.48614L1212.78 1.88495Z" fill="#00987E"/>
</g>
<g opacity="0.05">
<path d="M1222.21 1.88492C1222.21 1.88492 948.892 -13.496 960.672 152.195C972.453 317.886 823.387 259.629 712.635 311.471C601.884 363.313 679.643 456.83 637.232 512.743C594.815 568.65 479.552 492.059 451.272 586.594C422.992 681.13 359.168 768.904 218.961 780.082C78.7547 791.266 95.9263 830.906 70.0023 887.83C44.0783 944.755 18.8518 1020.99 -111.101 1020.99H1439.59V0L1222.2 1.88492H1222.21Z" fill="#00987E"/>
</g>
</svg>
