<svg width="147" height="133" viewBox="0 0 147 133" fill="none" xmlns="http://www.w3.org/2000/svg">
<g clip-path="url(#clip0_2449_6642)">
<path fill-rule="evenodd" clip-rule="evenodd" d="M85.0679 135.445C90.8915 126.729 94 116.482 94 106L147 106C147 126.965 140.783 147.459 129.136 164.89C117.488 182.322 100.933 195.908 81.5646 203.931C62.1957 211.954 40.8823 214.053 20.3204 209.963C-0.241434 205.873 -19.1291 195.778 -33.9531 180.953C-48.7778 166.129 -58.8732 147.241 -62.9632 126.68C-67.0532 106.118 -64.9539 84.8042 -56.9313 65.4354C-48.9081 46.0666 -35.3221 29.5116 -17.8904 17.8642C-0.458725 6.21679 20.0353 -5.5498e-06 41 -4.63341e-06L41 53C30.5177 53 20.2706 56.1084 11.5548 61.9321C2.83893 67.7557 -3.95407 76.0333 -7.96566 85.718C-11.9772 95.4021 -13.0266 106.059 -10.9814 116.34C-8.93661 126.621 -3.88889 136.064 3.52316 143.477C10.9357 150.889 20.3793 155.937 30.6602 157.981C40.9412 160.027 51.5979 158.977 61.282 154.966C70.9667 150.954 79.2443 144.161 85.0679 135.445Z" fill="url(#paint0_linear_2449_6642)"/>
<path fill-rule="evenodd" clip-rule="evenodd" d="M147 53C140.04 53 133.148 51.6291 126.718 48.9656C120.288 46.3021 114.445 42.3982 109.523 37.4766C104.602 32.5552 100.698 26.7125 98.0343 20.2822C95.3709 13.8519 94 6.96004 94 0L41 -4.63341e-06C41 13.9201 43.7417 27.7039 49.0687 40.5645C54.3957 53.425 62.2037 65.1105 72.0468 74.9531C81.8895 84.7963 93.5749 92.6042 106.436 97.9312C119.296 103.258 133.08 106 147 106L147 53Z" fill="url(#paint1_linear_2449_6642)"/>
</g>
<defs>
<linearGradient id="paint0_linear_2449_6642" x1="147" y1="106" x2="-65" y2="106" gradientUnits="userSpaceOnUse">
<stop stop-color="#F0F0F0"/>
<stop offset="0.795" stop-color="#F0F0F0" stop-opacity="0.21"/>
</linearGradient>
<linearGradient id="paint1_linear_2449_6642" x1="147" y1="53" x2="41" y2="53" gradientUnits="userSpaceOnUse">
<stop stop-color="#F0F0F0"/>
<stop offset="0.795" stop-color="#F0F0F0" stop-opacity="0.21"/>
</linearGradient>
<clipPath id="clip0_2449_6642">
<rect width="212" height="212" fill="white" transform="translate(147) rotate(90)"/>
</clipPath>
</defs>
</svg>
