<svg width="320" height="257" viewBox="0 0 320 257" fill="none" xmlns="http://www.w3.org/2000/svg">
<g clip-path="url(#clip0_2449_6577)">
<rect x="92.9917" y="-35.3619" width="51.1885" height="51.1885" rx="5.64839" stroke="#F0F0F0" stroke-width="0.529536"/>
<rect x="144.18" y="-35.3619" width="51.1885" height="51.1885" rx="5.64839" stroke="#F0F0F0" stroke-width="0.529536"/>
<rect x="195.369" y="-35.3619" width="51.1885" height="51.1885" rx="5.64839" stroke="#F0F0F0" stroke-width="0.529536"/>
<rect x="246.557" y="-35.3619" width="51.1885" height="51.1885" rx="5.64839" stroke="#F0F0F0" stroke-width="0.529536"/>
<rect x="297.746" y="-35.3619" width="51.1885" height="51.1885" rx="5.64839" stroke="#F0F0F0" stroke-width="0.529536"/>
<rect x="92.9917" y="15.8264" width="51.1885" height="51.1885" rx="5.64839" stroke="#F0F0F0" stroke-width="0.529536"/>
<rect x="144.18" y="15.8264" width="51.1885" height="51.1885" rx="5.64839" stroke="#F0F0F0" stroke-width="0.529536"/>
<rect x="195.369" y="15.8264" width="51.1885" height="51.1885" rx="5.64839" stroke="#F0F0F0" stroke-width="0.529536"/>
<rect x="246.557" y="15.8264" width="51.1885" height="51.1885" rx="5.64839" stroke="#F0F0F0" stroke-width="0.529536"/>
<rect x="297.746" y="15.8264" width="51.1885" height="51.1885" rx="5.64839" stroke="#F0F0F0" stroke-width="0.529536"/>
<rect x="92.9917" y="67.0151" width="51.1885" height="51.1885" rx="5.64839" stroke="#F0F0F0" stroke-width="0.529536"/>
<rect x="144.18" y="67.0151" width="51.1885" height="51.1885" rx="5.64839" stroke="#F0F0F0" stroke-width="0.529536"/>
<rect x="195.369" y="67.0151" width="51.1885" height="51.1885" rx="5.64839" stroke="#F0F0F0" stroke-width="0.529536"/>
<rect x="246.557" y="67.0151" width="51.1885" height="51.1885" rx="5.64839" stroke="#F0F0F0" stroke-width="0.529536"/>
<rect x="297.746" y="67.0151" width="51.1885" height="51.1885" rx="5.64839" stroke="#F0F0F0" stroke-width="0.529536"/>
<rect x="92.9917" y="118.204" width="51.1885" height="51.1885" rx="5.64839" stroke="#F0F0F0" stroke-width="0.529536"/>
<rect x="144.18" y="118.204" width="51.1885" height="51.1885" rx="5.64839" stroke="#F0F0F0" stroke-width="0.529536"/>
<rect x="195.369" y="118.204" width="51.1885" height="51.1885" rx="5.64839" stroke="#F0F0F0" stroke-width="0.529536"/>
<rect x="246.557" y="118.204" width="51.1885" height="51.1885" rx="5.64839" stroke="#F0F0F0" stroke-width="0.529536"/>
<rect x="297.746" y="118.204" width="51.1885" height="51.1885" rx="5.64839" stroke="#F0F0F0" stroke-width="0.529536"/>
<rect x="92.9917" y="169.392" width="51.1885" height="51.1885" rx="5.64839" stroke="#F0F0F0" stroke-width="0.529536"/>
<rect x="144.18" y="169.392" width="51.1885" height="51.1885" rx="5.64839" stroke="#F0F0F0" stroke-width="0.529536"/>
<rect x="195.369" y="169.392" width="51.1885" height="51.1885" rx="5.64839" stroke="#F0F0F0" stroke-width="0.529536"/>
<rect x="246.557" y="169.392" width="51.1885" height="51.1885" rx="5.64839" stroke="#F0F0F0" stroke-width="0.529536"/>
<rect x="297.746" y="169.392" width="51.1885" height="51.1885" rx="5.64839" stroke="#F0F0F0" stroke-width="0.529536"/>
<rect x="92.9917" y="220.581" width="51.1885" height="51.1885" rx="5.64839" stroke="#F0F0F0" stroke-width="0.529536"/>
<rect x="144.18" y="220.581" width="51.1885" height="51.1885" rx="5.64839" stroke="#F0F0F0" stroke-width="0.529536"/>
<rect x="195.369" y="220.581" width="51.1885" height="51.1885" rx="5.64839" stroke="#F0F0F0" stroke-width="0.529536"/>
<rect x="246.557" y="220.581" width="51.1885" height="51.1885" rx="5.64839" stroke="#F0F0F0" stroke-width="0.529536"/>
<rect x="297.746" y="220.581" width="51.1885" height="51.1885" rx="5.64839" stroke="#F0F0F0" stroke-width="0.529536"/>
<path d="M297.746 -31.1255V10.1783C297.746 13.2979 300.275 15.8267 303.394 15.8267H343.286C346.405 15.8267 348.934 18.3556 348.934 21.4751V61.3668C348.934 64.4864 351.463 67.0152 354.583 67.0152H394.474C397.594 67.0152 400.123 69.5441 400.123 72.6636V112.555C400.123 115.675 402.652 118.204 405.771 118.204H445.663C448.782 118.204 451.311 120.733 451.311 123.852V163.744C451.311 166.863 453.84 169.392 456.96 169.392H498.263M246.557 -31.1255V10.1783C246.557 13.2979 249.086 15.8267 252.206 15.8267H292.097C295.217 15.8267 297.746 18.3556 297.746 21.4751V61.3668C297.746 64.4864 300.275 67.0152 303.394 67.0152H343.286C346.405 67.0152 348.934 69.5441 348.934 72.6636V112.555C348.934 115.675 346.405 118.204 343.286 118.204H303.394C300.275 118.204 297.746 115.675 297.746 112.555V71.9576L297.696 71.6239C297.317 69.0656 295.146 67.1553 292.56 67.1056L287.861 67.0152H252.206C249.086 67.0152 246.557 69.5441 246.557 72.6636V112.555C246.557 115.675 249.086 118.204 252.206 118.204H292.45L293.791 118.293C296.016 118.441 297.746 120.29 297.746 122.52V126.853M297.746 122.44V163.744C297.746 166.863 300.275 169.392 303.394 169.392H343.286C346.405 169.392 348.934 171.921 348.934 175.041V214.932C348.934 218.052 351.463 220.581 354.583 220.581H394.474C397.594 220.581 400.123 223.11 400.123 226.229V266.121C400.123 269.24 402.652 271.769 405.771 271.769H445.663C448.782 271.769 451.311 274.298 451.311 277.418V317.309C451.311 320.429 453.84 322.958 456.96 322.958H498.263" stroke="url(#paint0_linear_2449_6577)" stroke-opacity="0.8" stroke-width="0.529536"/>
</g>
<defs>
<linearGradient id="paint0_linear_2449_6577" x1="246.557" y1="-31.1255" x2="492.615" y2="273.358" gradientUnits="userSpaceOnUse">
<stop offset="0.0819437" stop-color="#F7F7F7"/>
<stop offset="0.208333" stop-color="#00705D"/>
<stop offset="0.526042" stop-color="#00E0BA"/>
<stop offset="0.9375" stop-color="#00705D"/>
</linearGradient>
<clipPath id="clip0_2449_6577">
<rect width="320" height="257" fill="white"/>
</clipPath>
</defs>
</svg>
