<svg width="19" height="19" viewBox="0 0 19 19" fill="rgba(var(--center-channel-color-rgb), 0.64)" xmlns="http://www.w3.org/2000/svg">
<path d="M6.01707 6.65283C3.39402 6.65283 1.26758 8.77927 1.26758 11.4023C1.26758 14.0254 3.39402 16.1518 6.01707 16.1518H12.983C15.606 16.1518 17.7325 14.0254 17.7325 11.4023C17.7325 8.77927 15.606 6.65283 12.983 6.65283H6.01707ZM17.0992 11.4023C17.0966 13.6746 15.2552 15.5159 12.983 15.5185H6.01707C3.74373 15.5185 1.90086 13.6756 1.90086 11.4023C1.90086 9.12902 3.74377 7.28611 6.01707 7.28611H12.983C15.2552 7.28871 17.0966 9.1301 17.0992 11.4023Z" fill="black"/>
<path d="M8.55014 6.01959H10.4499C10.6248 6.01959 10.7666 5.87785 10.7666 5.70297C10.7666 5.5281 10.6248 5.38635 10.4499 5.38635H8.55014C8.37526 5.38635 8.23352 5.52813 8.23352 5.70297C8.23352 5.87781 8.3753 6.01959 8.55014 6.01959Z" fill="black"/>
<path d="M9.18338 5.06952H9.81666C9.99154 5.06952 10.1333 4.92774 10.1333 4.7529C10.1333 4.57802 9.99154 4.43628 9.81666 4.43628H9.18338C9.0085 4.43628 8.86676 4.57806 8.86676 4.7529C8.86676 4.92774 9.0085 5.06952 9.18338 5.06952Z" fill="black"/>
<path d="M17.0992 1.84515C17.5354 1.69094 17.797 1.24493 17.7188 0.788944C17.6406 0.332955 17.2452 -0.000325329 16.7826 -0.000325329C16.3199 -0.000325329 15.9246 0.332955 15.8464 0.788944C15.7681 1.24493 16.0298 1.69094 16.466 1.84515V3.17501C14.7238 1.1443 12.1756 -0.0158725 9.50001 0.00360784C6.82471 -0.0161693 4.27646 1.14349 2.5341 3.17374V1.84389C2.97027 1.68968 3.2319 1.24367 3.15368 0.787682C3.07546 0.331694 2.68011 -0.00158691 2.21748 -0.00158691C1.75485 -0.00158691 1.35949 0.331694 1.28123 0.787682C1.20301 1.24367 1.46464 1.68968 1.90082 1.84389V3.98687C0.633335 5.85969 -0.0297019 8.076 0.00102141 10.3372C0.00102141 16.0056 3.28578 19.0016 9.50001 19.0016C15.7142 19.0016 18.999 16.0056 18.999 10.3372C19.0295 8.07644 18.3665 5.86062 17.0992 3.98813V1.84515ZM16.7826 0.636886C16.9575 0.636886 17.0992 0.778666 17.0992 0.953506C17.0992 1.12835 16.9575 1.27013 16.7826 1.27013C16.6077 1.27013 16.466 1.12835 16.466 0.953506C16.466 0.778666 16.6077 0.636886 16.7826 0.636886ZM2.21748 0.636886C2.39235 0.636886 2.5341 0.778666 2.5341 0.953506C2.5341 1.12835 2.39235 1.27013 2.21748 1.27013C2.0426 1.27013 1.90086 1.12835 1.90086 0.953506C1.90086 0.778666 2.0426 0.636886 2.21748 0.636886ZM9.50001 18.3683C5.45567 18.3683 0.634299 16.9751 0.634299 10.3373C0.634299 4.80727 4.44592 0.636923 9.50001 0.636923C14.5541 0.636923 18.3657 4.80731 18.3657 10.3373C18.3658 16.9751 13.5444 18.3683 9.50001 18.3683Z" fill="black"/>
<path d="M5.06712 8.86938C4.19277 8.86938 3.48395 9.57821 3.48395 10.4526C3.48395 11.3269 4.19277 12.0357 5.06712 12.0357C5.94148 12.0357 6.6503 11.3269 6.6503 10.4526C6.64922 9.57862 5.94103 8.87042 5.06712 8.86938ZM5.06712 11.4024C4.54253 11.4024 4.11723 10.9771 4.11723 10.4525C4.11723 9.92793 4.54253 9.50263 5.06712 9.50263C5.59176 9.50263 6.01702 9.92793 6.01702 10.4525C6.01702 10.9772 5.59172 11.4024 5.06712 11.4024Z" fill="black"/>
<path d="M12.3496 10.4526C12.3496 11.3269 13.0584 12.0357 13.9328 12.0357C14.8071 12.0357 15.516 11.3269 15.516 10.4526C15.516 9.57821 14.8071 8.86938 13.9328 8.86938C13.0589 8.87046 12.3507 9.57865 12.3496 10.4526ZM13.9328 9.50266C14.4574 9.50266 14.8827 9.92796 14.8827 10.4526C14.8827 10.9772 14.4574 11.4025 13.9328 11.4025C13.4082 11.4025 12.9829 10.9772 12.9829 10.4526C12.9829 9.92796 13.4082 9.50266 13.9328 9.50266Z" fill="black"/>
<path d="M10.7666 12.0356H8.2335C7.88374 12.0356 7.60022 12.3192 7.60022 12.6689C7.60022 13.7182 8.45079 14.5687 9.50002 14.5687C10.5492 14.5687 11.3998 13.7182 11.3998 12.6689C11.3998 12.3192 11.1163 12.0356 10.7666 12.0356ZM9.50002 13.9354C8.80054 13.9354 8.2335 13.3684 8.2335 12.6689H10.7666C10.7666 13.3684 10.1995 13.9354 9.50002 13.9354Z" fill="black"/>
</svg>
