<svg width="848" height="549" viewBox="0 0 848 549" fill="none" xmlns="http://www.w3.org/2000/svg">
<g clip-path="url(#clip0_1966_4427)">
<path d="M511.467 25.6V183.467C511.467 197.334 499.734 209.067 485.867 209.067H350.4L250.133 261.333V209.066H241.6C227.733 209.066 216 197.333 216 183.466V25.6C216 11.733 227.733 0 241.6 0H486.933C500.8 0 511.467 11.733 511.467 25.6Z" fill="#00987E"/>
<path d="M285.333 132.266C300.65 132.266 313.066 119.85 313.066 104.533C313.066 89.2165 300.65 76.8 285.333 76.8C270.017 76.8 257.6 89.2165 257.6 104.533C257.6 119.85 270.017 132.266 285.333 132.266Z" fill="white"/>
<path d="M364.267 132.266C379.584 132.266 392 119.85 392 104.533C392 89.2165 379.584 76.8 364.267 76.8C348.951 76.8 336.534 89.2165 336.534 104.533C336.534 119.85 348.951 132.266 364.267 132.266Z" fill="white"/>
<path d="M443.2 132.266C458.517 132.266 470.933 119.85 470.933 104.533C470.933 89.2165 458.517 76.8 443.2 76.8C427.884 76.8 415.467 89.2165 415.467 104.533C415.467 119.85 427.884 132.266 443.2 132.266Z" fill="white"/>
<path d="M432.533 88.5331V245.333C432.533 259.2 444.266 270.933 458.133 270.933H594.666L694.933 323.2V270.933H702.4C716.267 270.933 728 259.2 728 245.333V88.5331C728 74.6661 716.267 62.9331 702.4 62.9331H457.067C443.2 62.9331 432.533 74.6671 432.533 88.5331Z" fill="#00705D"/>
<path d="M658.667 195.2C673.983 195.2 686.4 182.783 686.4 167.467C686.4 152.15 673.983 139.734 658.667 139.734C643.35 139.734 630.934 152.15 630.934 167.467C630.934 182.783 643.35 195.2 658.667 195.2Z" fill="white"/>
<path d="M579.733 195.2C595.05 195.2 607.466 182.783 607.466 167.467C607.466 152.15 595.05 139.734 579.733 139.734C564.416 139.734 552 152.15 552 167.467C552 182.783 564.416 195.2 579.733 195.2Z" fill="white"/>
<path d="M500.8 195.2C516.116 195.2 528.533 182.783 528.533 167.467C528.533 152.15 516.116 139.734 500.8 139.734C485.483 139.734 473.067 152.15 473.067 167.467C473.067 182.783 485.483 195.2 500.8 195.2Z" fill="white"/>
<path d="M587.2 277.333V435.2C587.2 449.067 575.467 460.8 561.6 460.8H477.333L438.933 512L400.533 459.733H317.333C303.466 459.733 291.733 448 291.733 434.133V277.333C291.733 263.466 303.466 251.733 317.333 251.733H562.666C576.533 251.733 587.2 263.467 587.2 277.333Z" fill="#115448"/>
<path d="M517.867 384C533.184 384 545.6 371.583 545.6 356.267C545.6 340.95 533.184 328.534 517.867 328.534C502.551 328.534 490.134 340.95 490.134 356.267C490.134 371.583 502.551 384 517.867 384Z" fill="white"/>
<path d="M440 384C455.317 384 467.733 371.583 467.733 356.267C467.733 340.95 455.317 328.534 440 328.534C424.684 328.534 412.267 340.95 412.267 356.267C412.267 371.583 424.684 384 440 384Z" fill="white"/>
<path d="M361.067 384C376.383 384 388.8 371.583 388.8 356.267C388.8 340.95 376.383 328.534 361.067 328.534C345.75 328.534 333.334 340.95 333.334 356.267C333.334 371.583 345.75 384 361.067 384Z" fill="white"/>
</g>
<g clip-path="url(#clip1_1966_4427)">
<path d="M710.665 504.352C724.656 504.352 735.999 493.009 735.999 479.018C735.999 465.026 724.656 453.684 710.665 453.684C696.673 453.684 685.331 465.026 685.331 479.018C685.331 493.009 696.673 504.352 710.665 504.352Z" fill="#404049"/>
<path d="M727.894 538.921L717.784 542.601C713.847 544.033 709.437 542.738 706.9 539.405L653.941 469.814L698.41 453.629L733.237 525.774C735.698 530.874 733.215 536.984 727.894 538.921Z" fill="#DEDEEA"/>
<path opacity="0.1" d="M716.792 491.734C701.902 494.633 692.734 506.623 689.442 516.497L677.531 500.824L653.943 469.792L698.376 453.649L716.321 490.715L716.792 491.734Z" fill="black"/>
<path d="M744.919 331.653C720.943 361.794 685.242 385.89 655.276 399.752L671.131 443.314L686.986 486.875C718.852 478.232 761.689 473.742 799.43 481.42C792.618 451.515 786.182 428.239 777.569 404.573C768.955 380.908 758.923 358.94 744.919 331.653Z" fill="#F0F0FC"/>
<path d="M671.225 492.611L686.986 486.875L655.276 399.752L639.515 405.489C615.456 414.245 603.052 440.847 611.808 464.905C620.565 488.963 647.166 501.368 671.225 492.611Z" fill="#2B5B4F"/>
<path opacity="0.1" d="M799.483 481.397C761.713 473.717 718.849 478.262 687.035 486.882L671.285 492.602C666.034 494.483 660.706 495.423 655.377 495.423C636.492 495.423 618.704 483.747 611.809 464.941C606.01 448.798 609.614 431.559 619.958 419.257C631.163 440.414 652.243 452.952 676.613 458.28C713.364 466.352 757.795 457.81 788.042 436.809C792.038 450.444 795.721 464.941 799.483 481.397Z" fill="black"/>
<path d="M814.545 488.475C808.412 490.708 801.63 487.545 799.397 481.412L744.901 331.685C742.669 325.552 745.832 318.77 751.965 316.538C758.098 314.305 764.88 317.468 767.113 323.601L821.609 473.327C823.841 479.461 820.679 486.243 814.545 488.475Z" fill="#2B5B4F"/>
<path d="M807.603 365.857C806.823 365.857 806.042 365.628 805.361 365.153C803.586 363.913 803.15 361.472 804.389 359.697L813.932 346.018C815.179 344.243 817.636 343.822 819.388 345.046C821.164 346.286 821.6 348.727 820.36 350.502L810.817 364.181C810.052 365.272 808.835 365.857 807.603 365.857ZM847.863 423.3C848.429 421.211 847.189 419.061 845.1 418.494L829 414.148C826.949 413.601 824.76 414.821 824.202 416.91C823.635 418.999 824.875 421.15 826.964 421.716L843.065 426.063C843.401 426.154 843.746 426.196 844.083 426.196C845.812 426.196 847.396 425.049 847.863 423.3ZM819.136 393.616L834.884 387.885C836.92 387.146 837.968 384.896 837.226 382.865C836.484 380.833 834.242 379.781 832.206 380.523L816.457 386.255C814.422 386.993 813.373 389.243 814.116 391.275C814.697 392.866 816.197 393.853 817.796 393.853C818.24 393.854 818.692 393.777 819.136 393.616Z" fill="#404049"/>
</g>
<path fill-rule="evenodd" clip-rule="evenodd" d="M90.3186 279.72L89.7664 289.49C68.425 297.127 47.8499 295.728 27.9792 286.001L28.5314 276.231C48.2521 269.902 68.7844 270.664 90.3186 279.72Z" fill="#115448"/>
<path fill-rule="evenodd" clip-rule="evenodd" d="M90.002 229.88C90.002 229.88 87.591 199.623 86.4772 185.636C86.1559 181.583 83.0619 178.294 79.0349 177.723C78.9445 177.711 78.8564 177.699 78.7684 177.685C75.3864 177.206 72.1853 179.346 71.3356 182.652C70.486 185.957 71.1976 182.297 70.9858 181.742C69.5863 178.096 65.7498 176.004 61.9275 176.799C61.9251 176.799 61.9251 176.799 61.9227 176.802C58.3789 177.537 55.7871 180.588 55.6348 184.206C55.4468 188.671 55.223 193.933 55.223 193.933C55.223 193.933 55.135 193.345 55.0088 192.51C54.5305 189.354 51.7911 187.038 48.5971 187.095H48.5947C45.2056 187.157 42.4401 189.827 42.2616 193.214C41.8165 201.718 41.0549 216.241 41.0549 216.241C41.0549 216.241 40.9954 215.446 40.9121 214.344C40.7836 212.649 39.9768 211.076 38.6701 209.986C37.3659 208.893 35.6737 208.377 33.9839 208.553C33.9815 208.553 33.9815 208.553 33.9792 208.553C31.1232 208.851 28.8836 211.138 28.648 213.999C28.1172 220.403 27.1962 231.494 26.6845 237.682C26.4036 241.069 26.4726 244.477 26.8915 247.852C27.9197 255.939 30.5543 271.792 36.9232 289.571L82.881 290.915C82.881 290.915 84.4399 276.595 88.048 272.954C91.6561 269.312 97.8464 259.392 103.518 245.124C103.518 245.124 113.547 234.179 118.393 228.888C119.816 227.336 119.731 224.93 118.203 223.483C118.2 223.483 118.2 223.48 118.198 223.48C114.549 220.02 109.078 219.325 104.679 221.76C98.2653 225.308 90.002 229.88 90.002 229.88Z" fill="#F9C295"/>
<path fill-rule="evenodd" clip-rule="evenodd" d="M90.0663 284.535L88.7169 305.345C67.3754 312.983 46.8003 311.583 26.9297 301.856L28.2791 281.046C48.2545 288.655 68.801 290.316 90.0663 284.535Z" fill="#00987E"/>
<path fill-rule="evenodd" clip-rule="evenodd" d="M83.7665 295.256C83.5332 292.929 81.4507 291.227 79.1207 291.463C76.7907 291.698 75.0914 293.781 75.327 296.111C75.5626 298.441 77.6451 300.14 79.9728 299.905C82.3028 299.669 84.0021 297.586 83.7665 295.256Z" fill="white"/>
<path fill-rule="evenodd" clip-rule="evenodd" d="M88.3384 228.072C88.3384 228.072 71.5451 230.14 70.9263 250.029C70.8977 251.015 71.6712 251.838 72.6566 251.869C73.6419 251.9 74.4654 251.124 74.4963 250.141C75.0104 233.526 88.8001 231.613 88.8001 231.613C89.7759 231.484 90.4661 230.59 90.34 229.611C90.2114 228.636 89.3166 227.945 88.3384 228.072Z" fill="#001210"/>
<path fill-rule="evenodd" clip-rule="evenodd" d="M69.1509 182.77L69.2389 227.084C69.2413 228.069 70.041 228.869 71.0263 228.866C72.0116 228.864 72.8113 228.062 72.8089 227.077L72.7209 182.763C72.7185 181.778 71.9188 180.978 70.9335 180.981C69.9482 180.983 69.1485 181.785 69.1509 182.77Z" fill="#001210"/>
<path fill-rule="evenodd" clip-rule="evenodd" d="M53.9712 192.421L52.5337 230.975C52.498 231.96 53.2667 232.789 54.252 232.827C55.235 232.862 56.0656 232.094 56.1013 231.108L57.5388 192.555C57.5745 191.569 56.8058 190.741 55.8204 190.705C54.8375 190.667 54.0069 191.436 53.9712 192.421Z" fill="#001210"/>
<path fill-rule="evenodd" clip-rule="evenodd" d="M39.4675 215.536L39.1938 234.16C39.1795 235.143 39.9673 235.954 40.9526 235.971C41.9356 235.985 42.7471 235.197 42.7638 234.212L43.0375 215.588C43.0518 214.603 42.264 213.792 41.2787 213.777C40.2934 213.763 39.4818 214.551 39.4675 215.536Z" fill="#001210"/>
<path fill-rule="evenodd" clip-rule="evenodd" d="M146.796 279.72L147.348 289.49C168.69 297.127 189.267 295.728 209.138 286.001L208.585 276.231C188.862 269.902 168.33 270.664 146.796 279.72Z" fill="#115448"/>
<path fill-rule="evenodd" clip-rule="evenodd" d="M147.113 229.88C147.113 229.88 149.523 199.623 150.637 185.636C150.961 181.583 154.053 178.294 158.082 177.723C158.17 177.711 158.258 177.699 158.348 177.685C161.728 177.206 164.929 179.346 165.779 182.652C166.629 185.957 165.917 182.297 166.129 181.742C167.531 178.096 171.365 176.004 175.189 176.799C175.189 176.799 175.192 176.799 175.192 176.802C178.738 177.537 181.327 180.588 181.48 184.206C181.668 188.671 181.891 193.933 181.891 193.933C181.891 193.933 181.98 193.345 182.106 192.51C182.584 189.354 185.326 187.038 188.517 187.095C191.906 187.157 194.674 189.827 194.853 193.214C195.298 201.718 196.06 216.241 196.06 216.241C196.06 216.241 196.121 215.446 196.202 214.344C196.331 212.649 197.14 211.076 198.444 209.986C199.749 208.893 201.441 208.377 203.133 208.553C205.989 208.851 208.231 211.138 208.469 213.999C209 220.403 209.918 231.494 210.43 237.682C210.713 241.069 210.642 244.477 210.223 247.852C209.195 255.939 206.56 271.792 200.194 289.571L154.233 290.915C154.233 290.915 152.675 276.595 149.066 272.954C145.461 269.312 139.268 259.392 133.596 245.124C133.596 245.124 123.567 234.179 118.721 228.888C117.301 227.336 117.384 224.93 118.912 223.483C118.914 223.483 118.914 223.48 118.917 223.48C122.568 220.02 128.037 219.325 132.437 221.76C138.849 225.308 147.113 229.88 147.113 229.88Z" fill="#F9C295"/>
<path fill-rule="evenodd" clip-rule="evenodd" d="M147.048 284.535L148.398 305.345C169.739 312.983 190.317 311.583 210.185 301.856L208.838 281.046C188.862 288.655 168.313 290.316 147.048 284.535Z" fill="#00987E"/>
<path fill-rule="evenodd" clip-rule="evenodd" d="M153.348 295.256C153.584 292.929 155.666 291.227 157.994 291.463C160.324 291.698 162.025 293.781 161.79 296.111C161.554 298.441 159.472 300.14 157.142 299.905C154.812 299.669 153.112 297.586 153.348 295.256Z" fill="white"/>
<path fill-rule="evenodd" clip-rule="evenodd" d="M148.314 231.613C148.314 231.613 162.104 233.526 162.618 250.141C162.649 251.124 163.475 251.9 164.458 251.869C165.443 251.838 166.219 251.015 166.188 250.029C165.569 230.14 148.776 228.072 148.776 228.072C147.798 227.945 146.903 228.636 146.774 229.611C146.648 230.59 147.338 231.484 148.314 231.613Z" fill="#001210"/>
<path fill-rule="evenodd" clip-rule="evenodd" d="M164.394 182.763L164.308 227.077C164.305 228.062 165.103 228.864 166.088 228.866C167.073 228.869 167.875 228.069 167.878 227.084L167.964 182.77C167.966 181.785 167.166 180.983 166.183 180.981C165.198 180.978 164.396 181.778 164.394 182.763Z" fill="#001210"/>
<path fill-rule="evenodd" clip-rule="evenodd" d="M179.578 192.555L181.013 231.108C181.051 232.094 181.879 232.862 182.865 232.827C183.848 232.789 184.619 231.96 184.581 230.975L183.143 192.421C183.108 191.436 182.279 190.667 181.294 190.705C180.309 190.741 179.54 191.569 179.578 192.555Z" fill="#001210"/>
<path fill-rule="evenodd" clip-rule="evenodd" d="M194.077 215.588L194.353 234.212C194.367 235.197 195.179 235.985 196.164 235.971C197.15 235.954 197.937 235.143 197.921 234.16L197.647 215.536C197.633 214.551 196.821 213.763 195.836 213.777C194.851 213.792 194.063 214.603 194.077 215.588Z" fill="#001210"/>
<path fill-rule="evenodd" clip-rule="evenodd" d="M125.897 177.682L128.027 163.169C128.17 162.196 127.497 161.289 126.521 161.144C125.547 161.001 124.638 161.677 124.495 162.652L122.365 177.163C122.222 178.139 122.898 179.046 123.872 179.189C124.848 179.334 125.754 178.658 125.897 177.682Z" fill="#001210"/>
<path fill-rule="evenodd" clip-rule="evenodd" d="M113.052 177.163L110.922 162.652C110.777 161.677 109.87 161.001 108.897 161.144C107.921 161.289 107.245 162.196 107.39 163.169L109.52 177.682C109.663 178.658 110.57 179.334 111.546 179.189C112.519 179.046 113.195 178.139 113.052 177.163Z" fill="#001210"/>
<path fill-rule="evenodd" clip-rule="evenodd" d="M138.606 179.229L148.836 155.908C149.231 155.005 148.821 153.951 147.919 153.556C147.015 153.159 145.963 153.57 145.565 154.472L135.336 177.794C134.941 178.696 135.353 179.75 136.255 180.145C137.157 180.543 138.209 180.131 138.606 179.229Z" fill="#001210"/>
<path fill-rule="evenodd" clip-rule="evenodd" d="M100.081 177.794L89.8497 154.472C89.4546 153.57 88.4003 153.159 87.4982 153.556C86.5962 153.951 86.1845 155.005 86.5819 155.908L96.8112 179.229C97.2063 180.131 98.2606 180.543 99.1626 180.145C100.065 179.75 100.476 178.696 100.081 177.794Z" fill="#001210"/>
<defs>
<clipPath id="clip0_1966_4427">
<rect width="512" height="512" fill="white" transform="translate(216)"/>
</clipPath>
<clipPath id="clip1_1966_4427">
<rect width="239" height="239" fill="white" transform="translate(609 310)"/>
</clipPath>
</defs>
</svg>
