<svg width="37" height="30" viewBox="0 0 37 30" fill="none" xmlns="http://www.w3.org/2000/svg">
<path d="M31.3821 19.6667H28.9486C26.2183 19.6667 23.9979 21.8879 23.9979 24.6174V27.9755C23.9979 28.8544 24.7122 29.5702 25.5904 29.5702H34.7409C35.6191 29.5702 36.3335 28.8551 36.3335 27.9755V24.6174C36.3335 21.8879 34.1123 19.6667 31.3821 19.6667ZM35.2092 27.9762C35.2092 28.2315 34.9947 28.4466 34.7409 28.4466H25.5904C25.3324 28.4466 25.1222 28.2357 25.1222 27.9762V24.6181C25.1222 22.508 26.8392 20.791 28.9493 20.791H31.3828C33.4929 20.791 35.2099 22.508 35.2099 24.6181V27.9762H35.2092ZM26.4876 15.1189C26.4876 17.1467 28.1372 18.7962 30.165 18.7962C32.1935 18.7962 33.8444 17.1467 33.8444 15.1189C33.8444 13.0904 32.1942 11.4394 30.165 11.4394C28.1372 11.4394 26.4876 13.0897 26.4876 15.1189ZM32.7194 15.1189C32.7194 16.5265 31.5733 17.6719 30.1643 17.6719C28.7566 17.6719 27.6112 16.5265 27.6112 15.1189C27.6112 13.7098 28.7566 12.5637 30.1643 12.5637C31.5733 12.5637 32.7194 13.7098 32.7194 15.1189ZM7.71982 19.6667H5.28631C2.55537 19.6667 0.333496 21.8879 0.333496 24.6181V27.9762C0.333496 28.8551 1.04857 29.5709 1.92818 29.5709H11.0787C11.9569 29.5709 12.6712 28.8558 12.6712 27.9762V24.6181C12.6712 21.8879 10.4501 19.6667 7.71982 19.6667ZM11.5469 27.9762C11.5469 28.2357 11.3367 28.4466 11.0787 28.4466H1.92818C1.66873 28.4466 1.45779 28.2357 1.45779 27.9762V24.6181C1.45779 22.508 3.17553 20.791 5.28631 20.791H7.71982C9.8299 20.791 11.5469 22.508 11.5469 24.6181V27.9762ZM6.50271 18.7962C8.53123 18.7962 10.1822 17.1467 10.1822 15.1189C10.1822 13.0904 8.53193 11.4394 6.50271 11.4394C4.4749 11.4394 2.82537 13.0897 2.82537 15.1189C2.82537 17.146 4.4749 18.7962 6.50271 18.7962ZM6.50271 12.5637C7.91178 12.5637 9.05787 13.7098 9.05787 15.1189C9.05787 16.5265 7.91178 17.6719 6.50271 17.6719C5.09506 17.6719 3.94967 16.5265 3.94967 15.1189C3.94896 13.7098 5.09436 12.5637 6.50271 12.5637ZM7.65443 8.52709H8.42154L8.26334 8.99537C8.13186 9.38982 8.27107 9.81662 8.61068 10.0578C8.77381 10.1738 8.96225 10.2315 9.15068 10.2315C9.35529 10.2315 9.5599 10.1633 9.73217 10.0276L11.6229 8.52709H15.7783C16.6432 8.52709 17.347 7.82326 17.347 6.95842V1.99787C17.347 1.13303 16.6432 0.429199 15.7783 0.429199H7.65443C6.78959 0.429199 6.08576 1.13303 6.08576 1.99787V6.95842C6.08576 7.82397 6.78959 8.52709 7.65443 8.52709ZM7.21006 1.99787C7.21006 1.75248 7.40975 1.5535 7.65443 1.5535H15.7783C16.0237 1.5535 16.2227 1.75318 16.2227 1.99787V6.95842C16.2227 7.20381 16.023 7.40279 15.7783 7.40279H11.5547C11.3423 7.40279 11.1419 7.4731 10.9739 7.606L9.53178 8.75068L9.56904 8.63959C9.66748 8.3499 9.62107 8.04193 9.44178 7.79232C9.26248 7.54482 8.98545 7.40279 8.6817 7.40279H7.65303C7.40764 7.40279 7.20865 7.20311 7.20865 6.95842V1.99787H7.21006ZM20.8908 8.52709H25.0462L26.9397 10.0318C27.1113 10.1647 27.3145 10.2315 27.5177 10.2315C27.7069 10.2315 27.8953 10.1738 28.0584 10.0578C28.3973 9.81662 28.5372 9.38982 28.4051 8.99326L28.2476 8.52709H29.0147C29.8795 8.52709 30.5833 7.82326 30.5833 6.95842V1.99787C30.5833 1.13303 29.8795 0.429199 29.0147 0.429199H20.8908C20.0259 0.429199 19.3221 1.13303 19.3221 1.99787V6.95842C19.3221 7.82397 20.0259 8.52709 20.8908 8.52709ZM20.4464 1.99787C20.4464 1.75248 20.6461 1.5535 20.8908 1.5535H29.0147C29.2601 1.5535 29.459 1.75318 29.459 1.99787V6.95842C29.459 7.20381 29.2594 7.40279 29.0147 7.40279H27.986C27.6829 7.40279 27.4059 7.54482 27.2252 7.79373C27.0466 8.04123 27.0009 8.3499 27.0994 8.63889L27.1373 8.75209L25.6952 7.606C25.5272 7.4731 25.3261 7.40209 25.1123 7.40209H20.8908C20.6454 7.40209 20.4464 7.2024 20.4464 6.95771V1.99787ZM8.56357 3.33521C8.56357 3.02514 8.81529 2.77342 9.12537 2.77342H14.3074C14.6182 2.77342 14.8692 3.02514 14.8692 3.33521C14.8692 3.64529 14.6175 3.89701 14.3074 3.89701H9.12537C8.81459 3.89771 8.56357 3.646 8.56357 3.33521ZM8.56357 5.62178C8.56357 5.311 8.81529 5.05998 9.12537 5.05998H11.8619C12.172 5.05998 12.4237 5.3117 12.4237 5.62178C12.4237 5.93186 12.172 6.18357 11.8619 6.18357H9.12537C8.81459 6.18357 8.56357 5.93186 8.56357 5.62178ZM21.7992 3.33521C21.7992 3.02514 22.0509 2.77342 22.361 2.77342H27.543C27.8538 2.77342 28.1048 3.02514 28.1048 3.33521C28.1048 3.64529 27.8531 3.89701 27.543 3.89701H22.361C22.0509 3.89771 21.7992 3.646 21.7992 3.33521ZM28.1055 5.62178C28.1055 5.93256 27.8538 6.18357 27.5437 6.18357H24.8072C24.4971 6.18357 24.2454 5.93186 24.2454 5.62178C24.2454 5.3117 24.4971 5.05998 24.8072 5.05998H27.5437C27.8538 5.05928 28.1055 5.311 28.1055 5.62178ZM18.3335 19.6892C15.6103 19.6892 13.3947 21.9054 13.3947 24.6301C13.3947 27.3547 15.6103 29.5709 18.3335 29.5709C21.0581 29.5709 23.2744 27.3547 23.2744 24.6301C23.2744 21.9054 21.0581 19.6892 18.3335 19.6892ZM18.3335 28.4466C16.2297 28.4466 14.519 26.7345 14.519 24.6301C14.519 22.5256 16.2304 20.8135 18.3335 20.8135C20.438 20.8135 22.1501 22.5256 22.1501 24.6301C22.1501 26.7345 20.438 28.4466 18.3335 28.4466ZM20.7375 23.0023C20.9569 23.2217 20.9576 23.5775 20.7375 23.7969L18.2801 26.2564C18.1746 26.3619 18.0319 26.4209 17.8828 26.4209C17.7337 26.4209 17.591 26.3619 17.4855 26.2564L15.9288 24.6997C15.7094 24.4803 15.7094 24.1245 15.9288 23.9051C16.1482 23.6858 16.504 23.6858 16.7233 23.9051L17.8821 25.0639L19.9422 23.0023C20.1623 22.7829 20.5181 22.7829 20.7375 23.0023Z" fill="#001210"/>
</svg>
