<svg width="10" height="10" viewBox="0 0 277 307" fill="none" xmlns="http://www.w3.org/2000/svg">
<path d="M9.97274 34.1681C3.85031 37.2804 -0.00554288 43.565 5.98091e-06 50.4229L0.16715 256.991C0.172699 263.849 4.03869 270.114 10.1661 273.195L73.4903 305.037C85.6064 311.129 99.9174 302.301 99.9064 288.741L99.6873 18.1669C99.6764 4.60659 85.3513 -4.14926 73.2451 2.00473L9.97274 34.1681Z" fill="white" fill-opacity="0.15"/>
<path d="M266.225 34.1681C272.347 37.2804 276.203 43.565 276.197 50.4229L276.03 256.991C276.025 263.849 272.159 270.114 266.031 273.195L202.707 305.037C190.591 311.129 176.28 302.301 176.291 288.741L176.51 18.1669C176.521 4.60659 190.846 -4.14926 202.952 2.00473L266.225 34.1681Z" fill="white" fill-opacity="0.15"/>
</svg>
