<svg width="766" height="165" viewBox="0 0 766 165" fill="none" xmlns="http://www.w3.org/2000/svg">
<path d="M48.0828 0.134695C46.6045 0.371756 40.7515 2.87407 14.8957 14.3847C9.40468 16.8343 4.36627 19.2313 3.67235 19.7581C2.85776 20.3639 1.98282 21.4175 1.25874 22.7345L0.112274 24.7364L0.0217635 81.4994C-0.0385768 123.011 0.0217635 138.71 0.263125 139.869C0.715677 141.95 1.86214 143.741 3.61201 145.084C4.60763 145.901 10.5511 148.64 25.3345 155.173C36.5277 160.125 46.3933 164.365 47.2984 164.603C49.35 165.129 50.6473 165.129 52.8799 164.629C56.5003 163.812 59.5173 161.284 60.6336 158.149C61.1767 156.595 61.2068 154.251 61.2068 82.474C61.2068 15.649 61.1465 8.24746 60.7241 6.98313C59.1251 2.29459 53.604 -0.681849 48.0828 0.134695Z" fill="#00987E"/>
<path d="M113.04 0.164623C109.601 0.691426 106.342 2.93034 104.743 5.90677L103.929 7.40816L103.838 81.7927C103.778 164.237 103.627 158.021 105.739 160.708C108.273 163.921 112.889 165.581 117.053 164.817C118.109 164.606 125.983 161.287 139.59 155.282C159.532 146.458 160.558 145.984 161.976 144.614C162.821 143.824 163.786 142.533 164.179 141.664L164.873 140.162L164.963 83.2678C165.054 23.5283 165.084 24.74 163.726 22.422C162.218 19.8144 161.493 19.4193 139.831 9.88413C128.729 4.95853 119.074 0.796787 118.41 0.586066C116.781 0.0592629 114.79 -0.098778 113.04 0.164623Z" fill="#00987E"/>
<path d="M215.784 126.536C207.933 126.536 201.277 125.214 195.816 122.568C190.355 119.838 185.704 116.339 181.864 112.072L194.664 99.1445C200.723 105.971 208.189 109.384 217.064 109.384C221.843 109.384 225.384 108.403 227.688 106.44C229.992 104.478 231.144 101.875 231.144 98.6325C231.144 96.1578 230.461 94.1098 229.096 92.4885C227.731 90.7818 224.957 89.6298 220.776 89.0325L211.944 87.8805C202.472 86.6858 195.517 83.8272 191.08 79.3045C186.728 74.7818 184.552 68.7658 184.552 61.2565C184.552 57.2458 185.32 53.5765 186.856 50.2485C188.392 46.9205 190.568 44.0618 193.384 41.6725C196.285 39.2832 199.784 37.4485 203.88 36.1685C208.061 34.8032 212.797 34.1205 218.088 34.1205C224.829 34.1205 230.76 35.1871 235.88 37.3205C241 39.4538 245.395 42.5685 249.064 46.6645L236.136 59.7205C234.003 57.2458 231.4 55.2405 228.328 53.7045C225.341 52.0832 221.544 51.2725 216.936 51.2725C212.584 51.2725 209.341 52.0405 207.208 53.5765C205.075 55.1125 204.008 57.2458 204.008 59.9765C204.008 63.0485 204.819 65.2672 206.44 66.6325C208.147 67.9978 210.877 68.9792 214.632 69.5765L223.464 70.9845C232.68 72.4352 239.507 75.2938 243.944 79.5605C248.381 83.7418 250.6 89.7152 250.6 97.4805C250.6 101.747 249.832 105.672 248.296 109.256C246.76 112.84 244.499 115.912 241.512 118.472C238.611 121.032 234.984 123.038 230.632 124.488C226.28 125.854 221.331 126.536 215.784 126.536ZM292.971 126.536C288.022 126.536 283.584 125.726 279.659 124.104C275.819 122.483 272.534 120.136 269.803 117.064C267.158 113.992 265.11 110.28 263.659 105.928C262.208 101.576 261.483 96.7125 261.483 91.3365C261.483 85.9605 262.208 81.0965 263.659 76.7445C265.11 72.3925 267.158 68.7232 269.803 65.7365C272.534 62.6645 275.819 60.3178 279.659 58.6965C283.584 57.0752 288.022 56.2645 292.971 56.2645C297.92 56.2645 302.315 57.0752 306.155 58.6965C310.08 60.3178 313.366 62.6645 316.011 65.7365C318.742 68.7232 320.832 72.3925 322.283 76.7445C323.734 81.0965 324.459 85.9605 324.459 91.3365C324.459 96.7125 323.734 101.576 322.283 105.928C320.832 110.28 318.742 113.992 316.011 117.064C313.366 120.136 310.08 122.483 306.155 124.104C302.315 125.726 297.92 126.536 292.971 126.536ZM292.971 111.56C296.726 111.56 299.627 110.408 301.675 108.104C303.723 105.8 304.747 102.515 304.747 98.2485V84.5525C304.747 80.2858 303.723 77.0005 301.675 74.6965C299.627 72.3925 296.726 71.2405 292.971 71.2405C289.216 71.2405 286.315 72.3925 284.267 74.6965C282.219 77.0005 281.195 80.2858 281.195 84.5525V98.2485C281.195 102.515 282.219 105.8 284.267 108.104C286.315 110.408 289.216 111.56 292.971 111.56ZM340.535 72.5205H331.063V57.8005H340.535V49.8645C340.535 43.3792 342.242 38.5151 345.655 35.2725C349.068 31.9445 354.06 30.2805 360.631 30.2805H372.919V45.0005H359.479V57.8005H372.919V72.5205H359.479V125H340.535V72.5205ZM433.121 125C429.708 125 426.849 123.934 424.545 121.8C422.326 119.667 420.918 116.808 420.321 113.224H419.553C418.529 117.576 416.268 120.904 412.769 123.208C409.27 125.427 404.961 126.536 399.841 126.536C393.1 126.536 387.937 124.744 384.353 121.16C380.769 117.576 378.977 112.84 378.977 106.952C378.977 99.8698 381.537 94.6218 386.657 91.2085C391.862 87.7098 398.902 85.9605 407.777 85.9605H418.401V81.7365C418.401 78.4938 417.548 75.9338 415.841 74.0565C414.134 72.0938 411.276 71.1125 407.265 71.1125C403.51 71.1125 400.524 71.9232 398.305 73.5445C396.086 75.1658 394.252 77.0005 392.801 79.0485L381.537 69.0645C384.268 65.0538 387.681 61.9392 391.777 59.7205C395.958 57.4165 401.59 56.2645 408.673 56.2645C418.23 56.2645 425.398 58.3552 430.177 62.5365C434.956 66.7178 437.345 72.8192 437.345 80.8405V110.28H443.617V125H433.121ZM406.881 113.352C410.038 113.352 412.726 112.67 414.945 111.304C417.249 109.939 418.401 107.72 418.401 104.648V96.7125H409.185C401.761 96.7125 398.049 99.2298 398.049 104.264V106.184C398.049 108.659 398.817 110.494 400.353 111.688C401.889 112.798 404.065 113.352 406.881 113.352ZM493.452 126.536C487.393 126.536 481.932 125.598 477.068 123.72C472.204 121.758 468.065 118.899 464.652 115.144C461.239 111.304 458.593 106.568 456.716 100.936C454.839 95.2192 453.9 88.5632 453.9 80.9685C453.9 73.4592 454.839 66.8032 456.716 61.0005C458.593 55.1125 461.239 50.2058 464.652 46.2805C468.065 42.2698 472.204 39.2405 477.068 37.1925C481.932 35.1445 487.393 34.1205 493.452 34.1205C501.729 34.1205 508.556 35.8272 513.932 39.2405C519.308 42.5685 523.617 47.8592 526.86 55.1125L510.092 63.8165C508.897 60.0618 507.02 57.0752 504.46 54.8565C501.985 52.5525 498.316 51.4005 493.452 51.4005C487.735 51.4005 483.127 53.2778 479.628 57.0325C476.215 60.7018 474.508 66.0778 474.508 73.1605V87.4965C474.508 94.5792 476.215 99.9978 479.628 103.752C483.127 107.422 487.735 109.256 493.452 109.256C498.231 109.256 502.028 107.976 504.844 105.416C507.745 102.771 509.879 99.6138 511.244 95.9445L527.116 105.16C523.788 111.987 519.393 117.278 513.932 121.032C508.556 124.702 501.729 126.536 493.452 126.536ZM539.707 30.2805H558.651V69.1925H559.419C560.614 65.6938 562.704 62.6645 565.691 60.1045C568.678 57.5445 572.816 56.2645 578.107 56.2645C585.019 56.2645 590.224 58.5685 593.723 63.1765C597.307 67.7845 599.099 74.3552 599.099 82.8885V125H580.155V84.4245C580.155 80.0725 579.472 76.8725 578.107 74.8245C576.742 72.6912 574.31 71.6245 570.811 71.6245C569.275 71.6245 567.782 71.8378 566.331 72.2645C564.88 72.6058 563.558 73.2032 562.363 74.0565C561.254 74.9098 560.358 75.9765 559.675 77.2565C558.992 78.4512 558.651 79.8592 558.651 81.4805V125H539.707V30.2805ZM665.621 125C662.208 125 659.349 123.934 657.045 121.8C654.826 119.667 653.418 116.808 652.821 113.224H652.053C651.029 117.576 648.768 120.904 645.269 123.208C641.77 125.427 637.461 126.536 632.341 126.536C625.6 126.536 620.437 124.744 616.853 121.16C613.269 117.576 611.477 112.84 611.477 106.952C611.477 99.8698 614.037 94.6218 619.157 91.2085C624.362 87.7098 631.402 85.9605 640.277 85.9605H650.901V81.7365C650.901 78.4938 650.048 75.9338 648.341 74.0565C646.634 72.0938 643.776 71.1125 639.765 71.1125C636.01 71.1125 633.024 71.9232 630.805 73.5445C628.586 75.1658 626.752 77.0005 625.301 79.0485L614.037 69.0645C616.768 65.0538 620.181 61.9392 624.277 59.7205C628.458 57.4165 634.09 56.2645 641.173 56.2645C650.73 56.2645 657.898 58.3552 662.677 62.5365C667.456 66.7178 669.845 72.8192 669.845 80.8405V110.28H676.117V125H665.621ZM639.381 113.352C642.538 113.352 645.226 112.67 647.445 111.304C649.749 109.939 650.901 107.72 650.901 104.648V96.7125H641.685C634.261 96.7125 630.549 99.2298 630.549 104.264V106.184C630.549 108.659 631.317 110.494 632.853 111.688C634.389 112.798 636.565 113.352 639.381 113.352ZM711.634 125C705.063 125 700.071 123.336 696.658 120.008C693.33 116.68 691.666 111.816 691.666 105.416V72.5205H682.194V57.8005H686.93C689.49 57.8005 691.239 57.2032 692.178 56.0085C693.117 54.7285 693.586 52.9365 693.586 50.6325V39.6245H710.61V57.8005H723.922V72.5205H710.61V110.28H722.898V125H711.634Z" fill="#00987E"/>
</svg>
