<svg width="170" height="117" viewBox="0 0 170 117" fill="none" xmlns="http://www.w3.org/2000/svg">
<path d="M6.822 20.8878C3.07991 22.79 0.723175 26.6313 0.726566 30.8229L0.828726 157.079C0.832118 161.271 3.19505 165.1 6.9402 166.983L45.6445 186.446C53.05 190.169 61.797 184.773 61.7903 176.485L61.6564 11.1077C61.6497 2.8195 52.8941 -2.53216 45.4947 1.22922L6.822 20.8878Z" fill="white" fill-opacity="0.05"/>
<path d="M45.7217 1.6748C52.7899 -1.91786 61.1498 3.19486 61.1562 11.1084L61.29 176.485C61.2964 184.401 52.942 189.556 45.8691 185.999L7.16504 166.537C3.5886 164.739 1.33238 161.082 1.3291 157.079L1.22656 30.8223C1.22339 26.8195 3.47436 23.151 7.04883 21.334L45.7217 1.6748Z" stroke="#00987E" stroke-opacity="0.05"/>
<path d="M163.446 20.8878C167.188 22.79 169.544 26.6313 169.541 30.8229L169.439 157.079C169.435 161.271 167.073 165.1 163.327 166.983L124.623 186.446C117.218 190.169 108.471 184.773 108.477 176.485L108.611 11.1077C108.618 2.8195 117.373 -2.53216 124.773 1.22922L163.446 20.8878Z" fill="white" fill-opacity="0.05"/>
<path d="M124.546 1.6748C117.478 -1.91786 109.118 3.19486 109.111 11.1084L108.978 176.485C108.971 184.401 117.326 189.556 124.398 185.999L163.103 166.537C166.679 164.739 168.935 161.082 168.938 157.079L169.041 30.8223C169.044 26.8195 166.793 23.151 163.219 21.334L124.546 1.6748Z" stroke="#00987E" stroke-opacity="0.05"/>
</svg>
