<svg width="36" height="36" viewBox="0 0 36 36" fill="none" xmlns="http://www.w3.org/2000/svg">
<mask id="mask0_1846_4570" style="mask-type:luminance" maskUnits="userSpaceOnUse" x="0" y="0" width="36" height="36">
<path d="M0 3.8147e-06H36V36H0V3.8147e-06Z" fill="white"/>
</mask>
<g mask="url(#mask0_1846_4570)">
<path d="M23.6474 11.7437V13.3737C23.6474 14.3021 22.8948 15.0546 21.9666 15.0546H20.5811" stroke="#001210" stroke-width="1.2" stroke-miterlimit="10" stroke-linecap="round" stroke-linejoin="round"/>
<path d="M20.8206 2.97227H20.759C20.4181 2.97227 20.1417 2.69588 20.1417 2.355C20.1417 1.34559 19.3235 0.527367 18.3141 0.527367H12.497C9.90819 0.527367 7.80957 2.62591 7.80957 5.21475V8.31244C7.80957 8.7675 8.0975 9.17264 8.52725 9.32227L9.68185 9.72424C10.0854 9.8648 10.5069 9.56477 10.5062 9.13741L10.5037 6.95309C10.4992 5.8908 11.3464 5.02596 12.3959 5.02146L12.4188 5.02132C12.74 5.01991 13.0577 5.06984 13.3612 5.16736C13.8989 5.34012 14.4561 5.44488 15.0209 5.44249H15.4369C16.0017 5.44488 16.5589 5.34012 17.0967 5.16736C17.4001 5.06984 17.7179 5.01991 18.0391 5.02132L18.0619 5.02146C19.1114 5.02596 19.9586 5.8908 19.9542 6.95309L19.952 9.13763C19.9514 9.56491 20.3729 9.8648 20.7764 9.72424L21.9306 9.32234C22.3603 9.17264 22.6482 8.7675 22.6482 8.31251V4.79991C22.6482 3.79057 21.83 2.97227 20.8206 2.97227Z" stroke="#001210" stroke-width="1.2" stroke-miterlimit="10" stroke-linecap="round" stroke-linejoin="round"/>
<path d="M9.23438 12.5075H9.24464C9.28507 14.1007 9.95297 15.6315 11.1524 16.668C12.118 17.5024 13.4735 18.2285 15.2601 18.2411C17.0466 18.2132 18.396 17.4756 19.3546 16.633C20.5217 15.607 21.1727 14.1104 21.2236 12.5509" stroke="#001210" stroke-width="1.2" stroke-miterlimit="10" stroke-linecap="round" stroke-linejoin="round"/>
<path d="M7.80982 8.07177C7.2417 8.17633 6.81104 8.6733 6.81104 9.27152V11.3578C6.81104 12.0321 7.35771 12.5787 8.03201 12.5787H9.2345V9.56845" stroke="#001210" stroke-width="1.2" stroke-miterlimit="10" stroke-linecap="round" stroke-linejoin="round"/>
<path d="M21.2236 9.56852V12.5787H22.4262C23.1005 12.5787 23.6471 12.0321 23.6471 11.3578V9.27152C23.6471 8.6733 23.2164 8.17633 22.6483 8.07177" stroke="#001210" stroke-width="1.2" stroke-miterlimit="10" stroke-linecap="round" stroke-linejoin="round"/>
<path d="M19.3742 15.9167H17.9957C17.4698 15.9167 17.0435 15.4904 17.0435 14.9644C17.0435 14.4386 17.4698 14.0122 17.9957 14.0122H19.3742C19.9 14.0122 20.3264 14.4386 20.3264 14.9644C20.3264 15.4904 19.9 15.9167 19.3742 15.9167Z" stroke="#001210" stroke-width="1.2" stroke-miterlimit="10" stroke-linecap="round" stroke-linejoin="round"/>
<path d="M6.52637 34.0607V31.071" stroke="#001210" stroke-width="1.2" stroke-miterlimit="10" stroke-linecap="round" stroke-linejoin="round"/>
<path d="M23.9513 21.0432C23.2851 20.7022 22.5713 20.4355 21.8198 20.255" stroke="#001210" stroke-width="1.2" stroke-miterlimit="10" stroke-linecap="round" stroke-linejoin="round"/>
<path d="M10.1114 19.3503L8.6377 20.254L12.041 23.6625C12.3654 23.9783 12.8761 23.9978 13.2236 23.7076L15.2294 22.0322L11.0126 19.3572C10.7382 19.183 10.3885 19.1804 10.1114 19.3503Z" stroke="#001210" stroke-width="1.2" stroke-miterlimit="10" stroke-linecap="round" stroke-linejoin="round"/>
<path d="M20.3468 19.3503L21.8206 20.254L18.4173 23.6625C18.0929 23.9783 17.5822 23.9978 17.2347 23.7076L15.229 22.0322L19.4456 19.3572C19.7201 19.183 20.0697 19.1804 20.3468 19.3503Z" stroke="#001210" stroke-width="1.2" stroke-miterlimit="10" stroke-linecap="round" stroke-linejoin="round"/>
<path d="M16.1978 25.4099L17.2041 23.6816" stroke="#001210" stroke-width="1.2" stroke-miterlimit="10" stroke-linecap="round" stroke-linejoin="round"/>
<path d="M13.2539 23.6816L14.2602 25.4099" stroke="#001210" stroke-width="1.2" stroke-miterlimit="10" stroke-linecap="round" stroke-linejoin="round"/>
<path d="M17.7337 34.075L16.1979 25.4099H15.2292H14.2605L12.7246 34.075" stroke="#001210" stroke-width="1.2" stroke-miterlimit="10" stroke-linecap="round" stroke-linejoin="round"/>
<path d="M31.7528 29.663H28.7715C28.7715 29.663 30.35 26.8019 30.6104 26.4822C30.8739 26.1591 31.1233 26.3606 31.1471 26.6457C31.1708 26.9308 31.1352 31.0642 31.1352 31.0642" stroke="#001210" stroke-width="1.2" stroke-miterlimit="10" stroke-linecap="round" stroke-linejoin="round"/>
<path d="M27.1257 31.2149C27.1257 31.2149 24.8158 31.2439 24.7064 31.2075C24.597 31.171 24.8818 30.9783 26.3962 28.8145C26.6791 28.4104 26.8347 28.0695 26.901 27.7838L26.9244 27.6002C26.9244 26.9292 26.3805 26.3853 25.7096 26.3853C25.1192 26.3853 24.6273 26.8065 24.5176 27.3647" stroke="#001210" stroke-width="1.2" stroke-miterlimit="10" stroke-linecap="round" stroke-linejoin="round"/>
<path d="M34.7256 28.7712C34.7256 32.4724 31.7253 35.4727 28.0242 35.4727C24.3231 35.4727 21.3228 32.4724 21.3228 28.7712C21.3228 25.0701 24.3231 22.0698 28.0242 22.0698C31.7253 22.0698 34.7256 25.0701 34.7256 28.7712Z" stroke="#001210" stroke-width="1.2" stroke-miterlimit="10" stroke-linecap="round" stroke-linejoin="round"/>
<path d="M8.63838 20.2548C4.33828 21.2879 1.27441 25.1413 1.27441 29.602V31.7185C1.27441 33.0199 2.32938 34.075 3.6308 34.075H21.163" stroke="#001210" stroke-width="1.2" stroke-miterlimit="10" stroke-linecap="round" stroke-linejoin="round"/>
<path d="M12.1718 17.3991V18.4053C12.1718 18.9304 11.9178 19.3942 11.5298 19.6852" stroke="#001210" stroke-width="1.2" stroke-miterlimit="10" stroke-linecap="round" stroke-linejoin="round"/>
<path d="M18.9276 19.6859C18.5347 19.3915 18.2866 18.923 18.2866 18.4053V17.4052" stroke="#001210" stroke-width="1.2" stroke-miterlimit="10" stroke-linecap="round" stroke-linejoin="round"/>
</g>
</svg>
